<?xml version="1.0" encoding="UTF-8" standalone="no"?>
<!DOCTYPE svg PUBLIC "-//W3C//DTD SVG 1.1//EN" "http://www.w3.org/Graphics/SVG/1.1/DTD/svg11.dtd">
<svg width="100%" height="100%" viewBox="0 0 1011 466" version="1.1" xmlns="http://www.w3.org/2000/svg" xmlns:xlink="http://www.w3.org/1999/xlink" xml:space="preserve" xmlns:serif="http://www.serif.com/" style="fill-rule:evenodd;clip-rule:evenodd;stroke-linejoin:round;stroke-miterlimit:2;">
    <g transform="matrix(1,0,0,1,-85,-131)">
        <g transform="matrix(4.16667,0,0,4.16667,-27.6022,1.13687e-13)">
            <g transform="matrix(1,0,0,1,6.62464,6.30445)">
                <g transform="matrix(-1,0,0,1,185.636,-30.099)">
                    <rect x="91.808" y="55.293" width="2.02" height="94.259" style="fill:rgb(70,165,175);"/>
                </g>
                <g>
                    <g transform="matrix(1,0,0,1,254.723,35.7136)">
                        <path d="M0,27.907C-5.713,27.907 -8.572,25.384 -8.572,20.335L-7.059,20.335C-7.059,24.456 -4.692,26.514 0.041,26.514C1.687,26.514 3.042,26.236 4.107,25.679C5.516,24.961 6.218,23.87 6.218,22.409C6.218,20.572 4.81,19.339 1.993,18.699C1.806,18.644 0.464,18.421 -2.033,18.023C-5.834,17.438 -7.735,15.749 -7.735,12.96C-7.735,11.178 -6.991,9.784 -5.503,8.773C-4.2,7.871 -2.594,7.418 -0.677,7.418C4.825,7.418 7.588,9.653 7.614,14.117L6.061,14.117C6.061,10.58 3.88,8.813 -0.48,8.813C-1.966,8.813 -3.257,9.131 -4.349,9.769C-5.598,10.541 -6.219,11.604 -6.219,12.96C-6.219,14.768 -4.852,15.935 -2.115,16.469C-1.396,16.601 0.014,16.852 2.109,17.224C5.858,17.889 7.734,19.617 7.734,22.409C7.734,24.374 6.885,25.836 5.182,26.794C3.854,27.538 2.127,27.907 0,27.907M-20.812,8.773C-23.471,8.773 -25.562,9.586 -27.091,11.205C-28.619,12.825 -29.382,14.981 -29.382,17.664C-29.382,20.322 -28.612,22.461 -27.072,24.081C-25.53,25.702 -23.441,26.514 -20.812,26.514C-18.177,26.514 -16.088,25.702 -14.532,24.081C-12.978,22.461 -12.2,20.322 -12.2,17.664C-12.2,14.952 -12.966,12.792 -14.491,11.185C-16.021,9.578 -18.126,8.773 -20.812,8.773M-20.853,27.831C-23.937,27.831 -26.378,26.874 -28.186,24.961C-29.938,23.125 -30.818,20.695 -30.818,17.664C-30.818,14.58 -29.907,12.109 -28.087,10.246C-26.267,8.386 -23.831,7.457 -20.772,7.457C-17.715,7.457 -15.28,8.386 -13.477,10.246C-11.668,12.109 -10.766,14.58 -10.766,17.664C-10.766,20.72 -11.681,23.179 -13.518,25.039C-15.351,26.899 -17.795,27.831 -20.853,27.831M-35.201,27.393L-35.201,14.595C-35.201,12.704 -35.788,11.262 -36.961,10.268C-38.127,9.27 -39.695,8.773 -41.662,8.773C-43.975,8.773 -45.804,9.487 -47.146,10.905C-48.487,12.33 -49.157,14.179 -49.157,16.469L-49.157,27.393L-50.593,27.393L-50.593,7.936L-49.157,7.936L-49.157,11.445C-47.83,8.785 -45.344,7.457 -41.701,7.457C-39.394,7.457 -37.53,8.014 -36.122,9.131C-34.554,10.329 -33.769,12.014 -33.769,14.196L-33.769,27.393L-35.201,27.393ZM-56.016,7.777L-54.581,7.777L-54.581,27.394L-56.016,27.394L-56.016,7.777ZM-55.375,3.868C-55.672,3.868 -55.884,3.683 -56.016,3.312L-56.016,0.601C-55.859,0.201 -55.645,0 -55.375,0C-55.136,0 -54.87,0.189 -54.581,0.558L-54.581,3.352C-54.847,3.698 -55.111,3.868 -55.375,3.868M-67.26,12.161C-66.835,11.205 -66.169,10.341 -65.264,9.569C-63.563,8.162 -61.396,7.457 -58.766,7.457L-58.766,8.773C-61.823,8.773 -64.068,9.928 -65.504,12.242C-66.673,14.156 -67.26,16.616 -67.26,19.617L-67.26,27.393L-68.694,27.393L-68.694,7.936L-67.26,7.936L-67.26,12.161ZM-79.938,12.161C-79.51,11.205 -78.847,10.341 -77.942,9.569C-76.242,8.162 -74.077,7.457 -71.444,7.457L-71.444,8.773C-74.499,8.773 -76.747,9.928 -78.182,12.242C-79.351,14.156 -79.938,16.616 -79.938,19.617L-79.938,27.393L-81.373,27.393L-81.373,7.936L-79.938,7.936L-79.938,12.161ZM-94.249,8.773C-96.908,8.773 -98.999,9.586 -100.526,11.205C-102.055,12.825 -102.822,14.981 -102.822,17.664C-102.822,20.322 -102.05,22.461 -100.51,24.081C-98.966,25.702 -96.878,26.514 -94.249,26.514C-91.616,26.514 -89.526,25.702 -87.97,24.081C-86.413,22.461 -85.636,20.322 -85.636,17.664C-85.636,14.952 -86.401,12.792 -87.931,11.185C-89.46,9.578 -91.563,8.773 -94.249,8.773M-94.289,27.831C-97.372,27.831 -99.817,26.874 -101.625,24.961C-103.379,23.125 -104.254,20.695 -104.254,17.664C-104.254,14.58 -103.345,12.109 -101.524,10.246C-99.704,8.386 -97.267,7.457 -94.21,7.457C-91.152,7.457 -88.72,8.386 -86.914,10.246C-85.104,12.109 -84.203,14.58 -84.203,17.664C-84.203,20.72 -85.12,23.179 -86.953,25.039C-88.786,26.899 -91.233,27.831 -94.289,27.831M-109.678,10.211L-109.678,27.393L-111.114,27.393L-111.114,10.211L-115.061,10.211L-115.061,8.893L-111.114,8.893L-111.114,2.912L-109.678,2.912L-109.678,8.893L-105.653,8.893L-105.653,10.211L-109.678,10.211ZM-130.688,1.796C-134.622,1.796 -137.698,2.851 -139.919,4.965C-142.137,7.078 -143.247,10.049 -143.247,13.875C-143.247,17.705 -142.129,20.739 -139.897,22.985C-137.665,25.231 -134.594,26.354 -130.688,26.354C-126.729,26.354 -123.633,25.242 -121.398,23.025C-119.167,20.808 -118.048,17.755 -118.048,13.875C-118.048,9.995 -119.193,6.995 -121.479,4.866C-123.686,2.82 -126.754,1.796 -130.688,1.796M-130.688,27.672C-135.073,27.672 -138.502,26.449 -140.976,24.005C-143.445,21.557 -144.683,18.182 -144.683,13.875C-144.683,9.625 -143.44,6.327 -140.954,3.987C-138.471,1.651 -135.049,0.48 -130.688,0.48C-126.33,0.48 -122.895,1.651 -120.383,3.987C-117.87,6.327 -116.618,9.625 -116.618,13.875C-116.618,18.21 -117.877,21.591 -120.401,24.024C-122.926,26.454 -126.357,27.672 -130.688,27.672" style="fill:rgb(35,31,32);"/>
                    </g>
                    <g transform="matrix(1,0,0,1,257.667,71.4857)">
                        <path d="M0,13.444C-3.536,13.444 -5.306,11.884 -5.306,8.757L-4.369,8.757C-4.369,11.306 -2.903,12.583 0.024,12.583C1.046,12.583 1.884,12.409 2.543,12.064C3.415,11.62 3.852,10.947 3.852,10.042C3.852,8.906 2.979,8.139 1.235,7.746C1.119,7.713 0.29,7.573 -1.258,7.326C-3.61,6.965 -4.787,5.92 -4.787,4.192C-4.787,3.09 -4.326,2.226 -3.404,1.602C-2.597,1.04 -1.604,0.763 -0.418,0.763C2.986,0.763 4.699,2.144 4.714,4.907L3.753,4.907C3.753,2.719 2.404,1.625 -0.295,1.625C-1.217,1.625 -2.016,1.823 -2.688,2.216C-3.462,2.695 -3.848,3.354 -3.848,4.192C-3.848,5.31 -3.004,6.033 -1.308,6.363C-0.862,6.447 0.011,6.603 1.308,6.831C3.63,7.243 4.788,8.314 4.788,10.042C4.788,11.258 4.264,12.162 3.209,12.756C2.385,13.218 1.318,13.444 0,13.444M-12.882,1.602C-14.526,1.602 -15.821,2.103 -16.768,3.105C-17.714,4.111 -18.187,5.441 -18.187,7.104C-18.187,8.75 -17.713,10.073 -16.759,11.075C-15.801,12.079 -14.51,12.583 -12.882,12.583C-11.251,12.583 -9.958,12.079 -8.993,11.075C-8.032,10.073 -7.552,8.75 -7.552,7.104C-7.552,5.424 -8.024,4.09 -8.969,3.094C-9.915,2.098 -11.22,1.602 -12.882,1.602M-12.906,13.398C-14.815,13.398 -16.328,12.804 -17.446,11.62C-18.532,10.483 -19.074,8.98 -19.074,7.104C-19.074,5.194 -18.512,3.666 -17.386,2.515C-16.26,1.364 -14.749,0.787 -12.856,0.787C-10.964,0.787 -9.459,1.364 -8.342,2.515C-7.221,3.666 -6.664,5.194 -6.664,7.104C-6.664,8.995 -7.232,10.518 -8.366,11.671C-9.502,12.82 -11.014,13.398 -12.906,13.398M-27.109,1.502C-28.685,1.502 -29.922,2.06 -30.825,3.181C-31.66,4.216 -32.08,5.516 -32.08,7.078C-32.08,8.675 -31.668,9.967 -30.852,10.952C-29.944,12.04 -28.701,12.583 -27.109,12.583C-25.534,12.583 -24.263,12.04 -23.292,10.952C-22.356,9.937 -21.888,8.642 -21.888,7.078C-21.888,5.385 -22.34,4.031 -23.244,3.018C-24.147,2.01 -25.434,1.502 -27.109,1.502M-21.888,13.127L-21.888,10.41C-22.941,12.4 -24.678,13.398 -27.096,13.398C-28.955,13.398 -30.414,12.787 -31.464,11.57C-32.47,10.418 -32.971,8.923 -32.971,7.078C-32.971,5.202 -32.47,3.69 -31.464,2.538C-30.378,1.303 -28.892,0.687 -26.998,0.687C-24.58,0.687 -22.878,1.667 -21.888,3.625L-21.888,-3.608L-21,-3.608L-21,13.127L-21.888,13.127ZM-41.027,1.602C-42.603,1.602 -43.843,2.152 -44.744,3.256C-45.579,4.272 -46,5.566 -46,7.128C-46,8.707 -45.589,9.993 -44.771,10.978C-43.866,12.049 -42.621,12.583 -41.027,12.583C-39.452,12.583 -38.182,12.049 -37.211,10.978C-36.277,9.959 -35.806,8.675 -35.806,7.128C-35.806,5.438 -36.261,4.09 -37.16,3.094C-38.065,2.098 -39.354,1.602 -41.027,1.602M-35.806,13.127L-35.806,10.41C-36.86,12.4 -38.595,13.398 -41.016,13.398C-42.874,13.398 -44.328,12.787 -45.385,11.57C-46.387,10.435 -46.889,8.956 -46.889,7.128C-46.889,5.269 -46.387,3.762 -45.385,2.611C-44.297,1.397 -42.809,0.787 -40.918,0.787C-38.496,0.787 -36.795,1.756 -35.806,3.697L-35.806,0.787L-34.919,0.787L-34.919,13.127L-35.806,13.127ZM-58.611,13.127L-58.611,12.308L-49.505,1.895L-57.895,1.895L-57.895,1.083L-48.369,1.083L-48.35,1.888L-57.495,12.308L-47.946,12.308L-47.946,13.127L-58.611,13.127ZM-61.229,0.985L-60.34,0.985L-60.34,13.127L-61.229,13.127L-61.229,0.985ZM-60.832,-1.436C-61.014,-1.436 -61.146,-1.548 -61.229,-1.781L-61.229,-3.46C-61.127,-3.705 -60.999,-3.829 -60.832,-3.829C-60.686,-3.829 -60.521,-3.714 -60.34,-3.482L-60.34,-1.756C-60.504,-1.543 -60.669,-1.436 -60.832,-1.436M-64.584,-3.608L-63.694,-3.608L-63.694,13.127L-64.584,13.127L-64.584,-3.608ZM-73.333,1.602C-74.91,1.602 -76.146,2.152 -77.049,3.256C-77.886,4.272 -78.306,5.566 -78.306,7.128C-78.306,8.707 -77.892,9.993 -77.075,10.978C-76.17,12.049 -74.927,12.583 -73.333,12.583C-71.755,12.583 -70.486,12.049 -69.514,10.978C-68.582,9.959 -68.113,8.675 -68.113,7.128C-68.113,5.438 -68.565,4.09 -69.466,3.094C-70.373,2.098 -71.657,1.602 -73.333,1.602M-68.113,13.127L-68.113,10.41C-69.165,12.4 -70.902,13.398 -73.321,13.398C-75.181,13.398 -76.636,12.787 -77.689,11.57C-78.693,10.435 -79.191,8.956 -79.191,7.128C-79.191,5.269 -78.693,3.762 -77.689,2.611C-76.603,1.397 -75.112,0.787 -73.219,0.787C-70.804,0.787 -69.1,1.756 -68.113,3.697L-68.113,0.787L-67.224,0.787L-67.224,13.127L-68.113,13.127ZM-81.858,0.985L-80.969,0.985L-80.969,13.127L-81.858,13.127L-81.858,0.985ZM-81.464,-1.436C-81.646,-1.436 -81.777,-1.548 -81.858,-1.781L-81.858,-3.46C-81.761,-3.705 -81.627,-3.829 -81.464,-3.829C-81.315,-3.829 -81.154,-3.714 -80.97,-3.482L-80.97,-1.756C-81.135,-1.543 -81.301,-1.436 -81.464,-1.436M-85.857,12.485C-86.81,13.093 -87.962,13.398 -89.313,13.398C-91.204,13.398 -92.699,12.848 -93.788,11.741C-94.884,10.643 -95.433,9.169 -95.433,7.326C-95.433,5.321 -94.866,3.727 -93.731,2.552C-92.591,1.372 -91.031,0.787 -89.04,0.787C-87.822,0.787 -86.771,1.066 -85.88,1.625C-84.895,2.252 -84.245,3.161 -83.934,4.363L-84.748,4.784C-85.29,2.661 -86.737,1.602 -89.09,1.602C-90.817,1.602 -92.176,2.144 -93.163,3.228C-94.083,4.25 -94.544,5.614 -94.544,7.326C-94.544,8.923 -94.083,10.197 -93.163,11.152C-92.24,12.107 -90.966,12.583 -89.337,12.583C-88.185,12.583 -87.19,12.308 -86.351,11.768C-85.445,11.175 -84.878,10.288 -84.647,9.102L-83.783,9.474C-84.097,10.805 -84.787,11.81 -85.857,12.485M-102.478,1.602C-103.988,1.602 -105.202,2.049 -106.124,2.945C-107.039,3.841 -107.559,5.048 -107.671,6.562L-97.455,6.562C-97.488,5.048 -97.957,3.841 -98.859,2.945C-99.761,2.049 -100.969,1.602 -102.478,1.602M-107.671,7.377C-107.573,10.846 -105.868,12.583 -102.552,12.583C-101.436,12.583 -100.445,12.327 -99.583,11.819C-98.725,11.306 -98.103,10.561 -97.728,9.574L-96.813,9.574C-97.243,10.938 -98.001,11.934 -99.084,12.559C-100.071,13.115 -101.247,13.398 -102.613,13.398C-104.588,13.398 -106.095,12.82 -107.132,11.671C-108.083,10.583 -108.562,9.073 -108.562,7.128C-108.562,5.254 -108.013,3.727 -106.922,2.552C-105.827,1.372 -104.351,0.787 -102.489,0.787C-100.648,0.787 -99.175,1.313 -98.073,2.368C-96.971,3.426 -96.42,4.868 -96.42,6.68L-96.42,7.377L-107.671,7.377ZM-115.606,1.602C-117.2,1.602 -118.459,2.109 -119.4,3.118C-120.334,4.131 -120.803,5.441 -120.803,7.056C-120.803,8.781 -120.391,10.132 -119.573,11.105C-118.667,12.138 -117.356,12.656 -115.63,12.656C-114.023,12.656 -112.776,12.113 -111.888,11.028C-111.071,10.026 -110.659,8.726 -110.659,7.128C-110.659,5.516 -111.078,4.209 -111.913,3.206C-112.803,2.137 -114.03,1.602 -115.606,1.602M-115.717,13.47C-118.156,13.47 -119.848,12.511 -120.803,10.583L-120.803,17.273L-121.692,17.273L-121.692,1.083L-120.803,1.083L-120.803,3.697C-120.341,2.76 -119.658,2.04 -118.754,1.541C-117.849,1.036 -116.845,0.787 -115.743,0.787C-113.834,0.787 -112.362,1.364 -111.325,2.528C-110.29,3.686 -109.77,5.213 -109.77,7.104C-109.77,9.029 -110.271,10.561 -111.277,11.696C-112.331,12.878 -113.81,13.47 -115.717,13.47M-128.774,13.444C-132.312,13.444 -134.078,11.884 -134.078,8.757L-133.141,8.757C-133.141,11.306 -131.677,12.583 -128.749,12.583C-127.728,12.583 -126.89,12.409 -126.23,12.064C-125.359,11.62 -124.922,10.947 -124.922,10.042C-124.922,8.906 -125.796,8.139 -127.539,7.746C-127.656,7.713 -128.484,7.573 -130.033,7.326C-132.386,6.965 -133.561,5.92 -133.561,4.192C-133.561,3.09 -133.099,2.226 -132.18,1.602C-131.374,1.04 -130.376,0.763 -129.192,0.763C-125.787,0.763 -124.076,2.144 -124.058,4.907L-125.022,4.907C-125.022,2.719 -126.372,1.625 -129.068,1.625C-129.992,1.625 -130.788,1.823 -131.462,2.216C-132.237,2.695 -132.621,3.354 -132.621,4.192C-132.621,5.31 -131.777,6.033 -130.082,6.363C-129.637,6.447 -128.764,6.603 -127.465,6.831C-125.145,7.243 -123.986,8.314 -123.986,10.042C-123.986,11.258 -124.513,12.162 -125.567,12.756C-126.386,13.218 -127.458,13.444 -128.774,13.444M-147.627,13.127L-147.627,-3.608L-135.264,-3.608L-135.264,-2.792L-146.738,-2.792L-146.738,3.994L-136.572,3.994L-136.572,4.809L-146.738,4.809L-146.738,12.308L-135.139,12.308L-135.139,13.127L-147.627,13.127Z" style="fill:rgb(35,31,32);"/>
                    </g>
                    <g transform="matrix(1,0,0,1,116.113,92.6628)">
                        <path d="M0,14.599L-4.503,14.599L-4.503,0.007L0.848,0.007C3.201,0.007 4.988,0.658 6.165,1.946C7.296,3.154 7.87,4.963 7.87,7.327C7.87,9.712 7.174,11.537 5.8,12.751C4.417,13.977 2.466,14.599 0,14.599M0.873,-1.493L-6.073,-1.493L-6.073,16.092L-0.074,16.092C2.793,16.092 5.09,15.36 6.754,13.916C8.538,12.395 9.441,10.177 9.441,7.327C9.441,4.558 8.723,2.391 7.306,0.889C5.847,-0.691 3.684,-1.493 0.873,-1.493" style="fill:rgb(70,165,175);fill-rule:nonzero;"/>
                    </g>
                    <g transform="matrix(1,0,0,1,128.547,99.5987)">
                        <path d="M0,0.727L10.302,0.727L10.302,-0.745L0,-0.745L0,-6.929L11.625,-6.929L11.625,-8.429L-1.547,-8.429L-1.547,9.156L11.749,9.156L11.749,7.663L0,7.663L0,0.727Z" style="fill:rgb(70,165,175);fill-rule:nonzero;"/>
                    </g>
                    <g transform="matrix(1,0,0,1,162.411,99.3533)">
                        <path d="M0,1.221C-1.051,0.578 -3.053,-0.007 -6.129,-0.568C-7.732,-0.859 -8.875,-1.184 -9.521,-1.529C-10.46,-2.038 -10.917,-2.774 -10.917,-3.778C-10.917,-5.851 -9.198,-6.86 -5.667,-6.86C-3.923,-6.86 -2.602,-6.608 -1.738,-6.105C-0.67,-5.509 -0.107,-4.435 -0.015,-2.813L0.002,-2.494L1.562,-2.494L1.555,-2.839C1.484,-6.5 -0.944,-8.357 -5.667,-8.357C-10.193,-8.357 -12.488,-6.817 -12.488,-3.778C-12.488,-2.188 -11.705,-0.963 -10.159,-0.135C-9.376,0.262 -7.945,0.681 -5.785,1.139C-3.886,1.544 -2.729,1.813 -2.245,1.958C-1.338,2.223 -0.688,2.546 -0.312,2.922C0.122,3.344 0.334,3.95 0.334,4.776C0.334,5.975 -0.271,6.838 -1.516,7.414C-2.481,7.858 -3.711,8.083 -5.166,8.083C-9.404,8.083 -11.466,6.6 -11.466,3.554L-11.466,2.893L-13.035,2.893L-13.035,3.654C-13.035,5.782 -12.192,7.372 -10.527,8.385C-9.184,9.176 -7.389,9.578 -5.189,9.578C-3.433,9.578 -1.905,9.265 -0.651,8.647C1.045,7.808 1.903,6.53 1.903,4.85C1.903,3.202 1.262,1.981 0,1.221" style="fill:rgb(70,165,175);fill-rule:nonzero;"/>
                    </g>
                    <g transform="matrix(1,0,0,1,176.756,98.0998)">
                        <path d="M0,3.725L-7.485,3.725L-3.678,-4.528L0,3.725ZM-4.36,-6.93L-12.454,10.655L-10.663,10.655L-8.195,5.221L0.648,5.221L3.069,10.655L4.776,10.655L-3.002,-6.93L-4.36,-6.93Z" style="fill:rgb(70,165,175);fill-rule:nonzero;"/>
                    </g>
                    <g transform="matrix(1,0,0,1,195.967,93.7468)">
                        <path d="M0,12.431C-1.303,10.783 -3.175,8.464 -5.69,5.38C-8.438,2.026 -10.541,-0.608 -11.946,-2.444L-12.047,-2.577L-13.598,-2.577L-13.598,15.008L-12.025,15.008L-12.025,-0.053L-0.102,14.883L-0.002,15.008L1.568,15.008L1.568,-2.577L0,-2.577L0,12.431Z" style="fill:rgb(70,165,175);fill-rule:nonzero;"/>
                    </g>
                    <g transform="matrix(1,0,0,1,212.477,108.755)">
                        <path d="M0,-17.585L-14.519,-17.585L-14.519,-16.085L-8.033,-16.085L-8.033,0L-6.461,0L-6.461,-16.085L0,-16.085L0,-17.585Z" style="fill:rgb(70,165,175);fill-rule:nonzero;"/>
                    </g>
                    <g transform="matrix(1,0,0,1,223.177,98.0998)">
                        <path d="M0,3.725L-7.489,3.725L-3.678,-4.53L0,3.725ZM-4.362,-6.93L-12.453,10.655L-10.664,10.655L-8.196,5.221L0.647,5.221L3.067,10.655L4.774,10.655L-3.004,-6.93L-4.362,-6.93Z" style="fill:rgb(70,165,175);fill-rule:nonzero;"/>
                    </g>
                    <g transform="matrix(1,0,0,1,237.028,91.1699)">
                        <path d="M0,17.585L1.544,17.585L1.544,9.156L10.129,9.156L10.129,7.684L1.544,7.684L1.544,1.5L11.676,1.5L11.676,0L0,0L0,17.585Z" style="fill:rgb(70,165,175);fill-rule:nonzero;"/>
                    </g>
                    <g transform="matrix(1,0,0,1,251.17,99.5987)">
                        <path d="M0,0.727L10.3,0.727L10.3,-0.745L0,-0.745L0,-6.929L11.623,-6.929L11.623,-8.429L-1.546,-8.429L-1.546,9.156L11.749,9.156L11.749,7.663L0,7.663L0,0.727Z" style="fill:rgb(70,165,175);fill-rule:nonzero;"/>
                    </g>
                </g>
                <g>
                    <g transform="matrix(1,0,0,1,24.5464,129.812)">
                        <path d="M0,0.024C0,-0.478 -0.044,-0.918 -0.137,-1.295C-0.228,-1.669 -0.357,-1.981 -0.524,-2.228C-0.691,-2.477 -0.892,-2.663 -1.122,-2.787C-1.353,-2.91 -1.603,-2.972 -1.876,-2.972L-2.555,-2.972L-2.555,2.997L-1.876,2.997C-1.603,2.997 -1.353,2.935 -1.122,2.809C-0.892,2.687 -0.691,2.502 -0.524,2.253C-0.357,2.005 -0.228,1.696 -0.137,1.323C-0.044,0.953 0,0.519 0,0.024M1.435,0.024C1.435,1.366 1.155,2.407 0.592,3.147C0.03,3.886 -0.796,4.254 -1.887,4.254L-4,4.254L-4,-4.23L-1.876,-4.23C-0.792,-4.23 0.03,-3.857 0.592,-3.11C1.155,-2.364 1.435,-1.319 1.435,0.024" style="fill:rgb(108,110,112);fill-rule:nonzero;"/>
                    </g>
                    <g transform="matrix(1,0,0,1,3.55271e-15,84.649)">
                        <path d="M27.295,43.305L28.646,43.305L28.646,49.417L27.295,49.417L27.295,43.305ZM28.754,41.532C28.754,41.771 28.677,41.969 28.525,42.131C28.375,42.292 28.187,42.371 27.964,42.371C27.733,42.371 27.543,42.292 27.397,42.131C27.249,41.969 27.176,41.771 27.176,41.532C27.176,41.3 27.249,41.1 27.397,40.933C27.543,40.764 27.733,40.68 27.964,40.68C28.195,40.68 28.384,40.764 28.531,40.933C28.679,41.1 28.754,41.3 28.754,41.532" style="fill:rgb(108,110,112);fill-rule:nonzero;"/>
                    </g>
                    <g transform="matrix(1,0,0,1,32.7319,130.772)">
                        <path d="M0,0.43L-0.396,0.43C-0.562,0.43 -0.724,0.445 -0.88,0.472C-1.034,0.5 -1.173,0.554 -1.292,0.634C-1.411,0.713 -1.507,0.823 -1.578,0.962C-1.65,1.104 -1.685,1.282 -1.685,1.496C-1.685,1.816 -1.617,2.052 -1.478,2.203C-1.338,2.358 -1.177,2.43 -0.993,2.43C-0.81,2.43 -0.655,2.38 -0.527,2.276C-0.399,2.172 -0.297,2.04 -0.221,1.88C-0.147,1.721 -0.091,1.543 -0.056,1.348C-0.019,1.152 0,0.962 0,0.777L0,0.43ZM0.046,2.386C-0.042,2.72 -0.201,2.982 -0.431,3.168C-0.663,3.356 -0.969,3.451 -1.351,3.451C-1.527,3.451 -1.706,3.417 -1.889,3.355C-2.073,3.291 -2.238,3.185 -2.385,3.037C-2.533,2.888 -2.653,2.698 -2.748,2.461C-2.845,2.228 -2.893,1.941 -2.893,1.605C-2.893,1.172 -2.815,0.82 -2.659,0.544C-2.505,0.268 -2.305,0.051 -2.062,-0.11C-1.818,-0.268 -1.55,-0.38 -1.249,-0.441C-0.952,-0.498 -0.659,-0.528 -0.371,-0.528L-0.037,-0.528L-0.037,-0.719C-0.037,-1.129 -0.119,-1.421 -0.282,-1.602C-0.445,-1.782 -0.663,-1.871 -0.933,-1.871C-1.164,-1.871 -1.373,-1.817 -1.561,-1.708C-1.748,-1.602 -1.91,-1.46 -2.043,-1.285L-2.689,-2.134C-2.466,-2.415 -2.185,-2.632 -1.841,-2.788C-1.5,-2.944 -1.16,-3.021 -0.826,-3.021C-0.451,-3.021 -0.136,-2.963 0.125,-2.841C0.382,-2.723 0.592,-2.549 0.751,-2.322C0.911,-2.094 1.024,-1.81 1.093,-1.474C1.16,-1.14 1.193,-0.759 1.193,-0.339L1.193,3.294L0.07,3.294L0.07,2.386L0.046,2.386Z" style="fill:rgb(108,110,112);fill-rule:nonzero;"/>
                    </g>
                    <g transform="matrix(1,0,0,1,38.4521,133.697)">
                        <path d="M0,-2.699C0,-2.985 -0.02,-3.258 -0.065,-3.513C-0.109,-3.767 -0.172,-3.987 -0.256,-4.173C-0.34,-4.356 -0.445,-4.503 -0.571,-4.61C-0.699,-4.719 -0.848,-4.772 -1.015,-4.772C-1.189,-4.772 -1.342,-4.719 -1.47,-4.61C-1.596,-4.503 -1.699,-4.356 -1.779,-4.173C-1.859,-3.987 -1.918,-3.767 -1.958,-3.513C-1.999,-3.258 -2.017,-2.985 -2.017,-2.699C-2.017,-2.412 -1.999,-2.138 -1.958,-1.883C-1.918,-1.629 -1.859,-1.406 -1.779,-1.219C-1.699,-1.031 -1.596,-0.883 -1.47,-0.775C-1.342,-0.667 -1.189,-0.614 -1.015,-0.614C-0.848,-0.614 -0.699,-0.667 -0.571,-0.775C-0.445,-0.883 -0.34,-1.031 -0.256,-1.219C-0.172,-1.406 -0.109,-1.629 -0.065,-1.883C-0.02,-2.138 0,-2.412 0,-2.699M1.279,0.202C1.279,0.657 1.234,1.071 1.149,1.445C1.06,1.816 0.917,2.133 0.718,2.402C0.52,2.668 0.264,2.877 -0.046,3.025C-0.358,3.174 -0.736,3.247 -1.182,3.247C-1.604,3.247 -2.005,3.164 -2.388,3.001C-2.77,2.838 -3.085,2.618 -3.333,2.348L-2.603,1.377C-2.429,1.569 -2.223,1.728 -1.989,1.856C-1.753,1.984 -1.498,2.047 -1.217,2.047C-0.994,2.047 -0.807,2.003 -0.657,1.91C-0.504,1.817 -0.384,1.695 -0.291,1.537C-0.2,1.383 -0.135,1.199 -0.095,0.988C-0.056,0.775 -0.035,0.546 -0.035,0.297L-0.035,-0.444L-0.059,-0.444C-0.146,-0.174 -0.308,0.057 -0.543,0.243C-0.777,0.431 -1.061,0.526 -1.397,0.526C-1.724,0.526 -2.009,0.447 -2.256,0.286C-2.503,0.127 -2.709,-0.098 -2.873,-0.386C-3.035,-0.673 -3.158,-1.012 -3.243,-1.404C-3.327,-1.796 -3.368,-2.222 -3.368,-2.686C-3.368,-3.157 -3.325,-3.594 -3.238,-3.993C-3.149,-4.391 -3.023,-4.735 -2.854,-5.024C-2.687,-5.312 -2.483,-5.537 -2.239,-5.702C-1.997,-5.863 -1.716,-5.946 -1.397,-5.946C-1.007,-5.946 -0.708,-5.845 -0.501,-5.64C-0.293,-5.437 -0.143,-5.181 -0.046,-4.881L-0.011,-4.881L-0.011,-5.743L1.279,-5.743L1.279,0.202Z" style="fill:rgb(108,110,112);fill-rule:nonzero;"/>
                    </g>
                    <g transform="matrix(1,0,0,1,42.6938,133.863)">
                        <path d="M0,-5.909L0,-4.938L0.024,-4.938C0.136,-5.264 0.322,-5.543 0.579,-5.77C0.839,-5.999 1.158,-6.112 1.542,-6.112C1.876,-6.112 2.146,-6.042 2.348,-5.903C2.552,-5.763 2.708,-5.578 2.821,-5.347C2.932,-5.112 3.008,-4.847 3.047,-4.546C3.086,-4.248 3.106,-3.943 3.106,-3.632L3.106,0.203L1.756,0.203L1.756,-3.632C1.756,-3.782 1.748,-3.938 1.733,-4.092C1.717,-4.248 1.683,-4.39 1.631,-4.518C1.58,-4.646 1.503,-4.747 1.405,-4.825C1.305,-4.899 1.175,-4.938 1.015,-4.938C0.713,-4.938 0.472,-4.786 0.293,-4.483C0.114,-4.179 0.024,-3.795 0.024,-3.331L0.024,0.203L-1.325,0.203L-1.325,-5.909L0,-5.909Z" style="fill:rgb(108,110,112);fill-rule:nonzero;"/>
                    </g>
                    <g transform="matrix(1,0,0,1,49.8569,132.546)">
                        <path d="M0,-5.371L-1.018,-5.371L0.059,-7.097L1.303,-7.097L0,-5.371ZM0.508,-1.535C0.508,-1.83 0.488,-2.104 0.447,-2.357C0.408,-2.607 0.347,-2.828 0.263,-3.014C0.178,-3.203 0.076,-3.351 -0.049,-3.459C-0.171,-3.567 -0.321,-3.621 -0.496,-3.621C-0.672,-3.621 -0.82,-3.567 -0.945,-3.459C-1.067,-3.351 -1.169,-3.203 -1.249,-3.014C-1.329,-2.828 -1.388,-2.607 -1.429,-2.357C-1.468,-2.104 -1.488,-1.83 -1.488,-1.535C-1.488,-1.247 -1.468,-0.976 -1.429,-0.721C-1.388,-0.465 -1.329,-0.245 -1.249,-0.06C-1.169,0.124 -1.067,0.269 -0.945,0.376C-0.82,0.484 -0.672,0.537 -0.496,0.537C-0.321,0.537 -0.169,0.484 -0.043,0.376C0.085,0.269 0.189,0.124 0.269,-0.06C0.349,-0.245 0.408,-0.465 0.447,-0.721C0.488,-0.976 0.508,-1.247 0.508,-1.535M1.857,-1.524C1.857,-1.043 1.804,-0.603 1.696,-0.205C1.588,0.194 1.432,0.535 1.228,0.819C1.025,1.104 0.779,1.326 0.491,1.486C0.204,1.644 -0.123,1.726 -0.49,1.726C-0.857,1.726 -1.186,1.644 -1.472,1.486C-1.759,1.326 -2.004,1.104 -2.208,0.819C-2.413,0.535 -2.568,0.194 -2.676,-0.205C-2.783,-0.603 -2.838,-1.043 -2.838,-1.524C-2.838,-2.01 -2.783,-2.457 -2.676,-2.858C-2.568,-3.265 -2.415,-3.609 -2.215,-3.895C-2.015,-4.184 -1.769,-4.405 -1.479,-4.561C-1.188,-4.718 -0.857,-4.795 -0.49,-4.795C-0.123,-4.795 0.204,-4.718 0.491,-4.561C0.779,-4.405 1.025,-4.184 1.228,-3.895C1.432,-3.609 1.588,-3.265 1.696,-2.858C1.804,-2.457 1.857,-2.01 1.857,-1.524" style="fill:rgb(108,110,112);fill-rule:nonzero;"/>
                    </g>
                    <g transform="matrix(1,0,0,1,55.5605,132.688)">
                        <path d="M0,-3.354C-0.111,-3.508 -0.25,-3.631 -0.417,-3.726C-0.584,-3.822 -0.776,-3.872 -0.991,-3.872C-1.189,-3.872 -1.358,-3.802 -1.494,-3.661C-1.629,-3.521 -1.696,-3.336 -1.696,-3.104C-1.696,-2.863 -1.625,-2.691 -1.48,-2.583C-1.338,-2.475 -1.111,-2.364 -0.799,-2.254C-0.625,-2.187 -0.453,-2.112 -0.28,-2.018C-0.109,-1.926 0.047,-1.809 0.186,-1.667C0.325,-1.522 0.437,-1.347 0.52,-1.143C0.604,-0.938 0.646,-0.698 0.646,-0.419C0.646,-0.083 0.592,0.209 0.484,0.462C0.376,0.714 0.23,0.924 0.048,1.093C-0.136,1.26 -0.345,1.383 -0.579,1.462C-0.815,1.544 -1.06,1.583 -1.313,1.583C-1.696,1.583 -2.052,1.506 -2.385,1.355C-2.714,1.203 -2.995,1 -3.225,0.743L-2.498,-0.119C-2.353,0.048 -2.186,0.192 -1.995,0.312C-1.804,0.431 -1.581,0.493 -1.327,0.493C-1.104,0.493 -0.928,0.416 -0.799,0.264C-0.673,0.114 -0.609,-0.086 -0.609,-0.333C-0.609,-0.624 -0.704,-0.832 -0.889,-0.959C-1.077,-1.087 -1.327,-1.206 -1.637,-1.319C-1.796,-1.375 -1.952,-1.442 -2.102,-1.522C-2.254,-1.601 -2.394,-1.71 -2.521,-1.844C-2.647,-1.981 -2.75,-2.148 -2.826,-2.343C-2.9,-2.539 -2.939,-2.776 -2.939,-3.056C-2.939,-3.351 -2.886,-3.615 -2.778,-3.846C-2.67,-4.081 -2.529,-4.275 -2.353,-4.44C-2.179,-4.603 -1.976,-4.728 -1.744,-4.811C-1.512,-4.896 -1.274,-4.937 -1.026,-4.937C-0.66,-4.937 -0.331,-4.871 -0.036,-4.739C0.26,-4.609 0.51,-4.439 0.716,-4.23L0,-3.354Z" style="fill:rgb(108,110,112);fill-rule:nonzero;"/>
                    </g>
                    <g transform="matrix(1,0,0,1,58.7637,131.621)">
                        <path d="M0,-2.624L0,0.517C0,0.853 0.048,1.095 0.148,1.247C0.249,1.399 0.401,1.476 0.608,1.476C0.68,1.476 0.753,1.466 0.829,1.451C0.905,1.435 0.97,1.41 1.025,1.379L1.05,2.434C0.955,2.483 0.827,2.522 0.668,2.554C0.508,2.587 0.349,2.602 0.19,2.602C-0.329,2.602 -0.7,2.447 -0.926,2.14C-1.154,1.832 -1.268,1.393 -1.268,0.816L-1.268,-2.624L-2.032,-2.624L-2.032,-3.667L-1.268,-3.667L-1.268,-5.226L0,-5.226L0,-3.667L1.063,-3.667L1.063,-2.624L0,-2.624Z" style="fill:rgb(108,110,112);fill-rule:nonzero;"/>
                    </g>
                    <g transform="matrix(1,0,0,1,3.55271e-15,84.649)">
                        <path d="M60.793,43.305L62.144,43.305L62.144,49.417L60.793,49.417L60.793,43.305ZM62.252,41.532C62.252,41.771 62.176,41.969 62.023,42.131C61.873,42.292 61.686,42.371 61.461,42.371C61.231,42.371 61.042,42.292 60.896,42.131C60.747,41.969 60.674,41.771 60.674,41.532C60.674,41.3 60.747,41.1 60.896,40.933C61.042,40.764 61.231,40.68 61.461,40.68C61.693,40.68 61.882,40.764 62.031,40.933C62.177,41.1 62.252,41.3 62.252,41.532" style="fill:rgb(108,110,112);fill-rule:nonzero;"/>
                    </g>
                    <g transform="matrix(1,0,0,1,66.5024,127.901)">
                        <path d="M0,6.22C-0.237,6.321 -0.508,6.37 -0.812,6.37C-1.186,6.37 -1.516,6.288 -1.805,6.131C-2.093,5.971 -2.333,5.744 -2.525,5.451C-2.72,5.162 -2.865,4.815 -2.959,4.416C-3.057,4.016 -3.106,3.577 -3.106,3.097C-3.106,2.618 -3.054,2.18 -2.954,1.779C-2.854,1.378 -2.705,1.035 -2.508,0.749C-2.312,0.46 -2.071,0.24 -1.787,0.083C-1.503,-0.073 -1.172,-0.15 -0.799,-0.15C-0.473,-0.15 -0.192,-0.094 0.043,0.019C0.278,0.13 0.462,0.254 0.598,0.39L-0.011,1.408C-0.098,1.312 -0.2,1.232 -0.315,1.169C-0.43,1.104 -0.571,1.072 -0.74,1.072C-1.074,1.072 -1.326,1.258 -1.499,1.631C-1.67,2.002 -1.755,2.491 -1.755,3.097C-1.755,3.705 -1.668,4.194 -1.492,4.559C-1.317,4.928 -1.05,5.113 -0.691,5.113C-0.524,5.113 -0.38,5.078 -0.262,5.015C-0.143,4.95 -0.039,4.863 0.049,4.751L0.611,5.806C0.444,5.982 0.24,6.119 0,6.22" style="fill:rgb(108,110,112);fill-rule:nonzero;"/>
                    </g>
                    <g transform="matrix(1,0,0,1,70.9355,131.012)">
                        <path d="M0,-0.001C0,-0.296 -0.02,-0.57 -0.059,-0.823C-0.1,-1.073 -0.161,-1.294 -0.245,-1.48C-0.328,-1.669 -0.432,-1.817 -0.554,-1.925C-0.679,-2.033 -0.827,-2.087 -1.002,-2.087C-1.178,-2.087 -1.327,-2.033 -1.451,-1.925C-1.573,-1.817 -1.675,-1.669 -1.755,-1.48C-1.834,-1.294 -1.896,-1.073 -1.935,-0.823C-1.974,-0.57 -1.995,-0.296 -1.995,-0.001C-1.995,0.287 -1.974,0.558 -1.935,0.813C-1.896,1.069 -1.834,1.289 -1.755,1.474C-1.675,1.658 -1.573,1.803 -1.451,1.91C-1.327,2.019 -1.178,2.071 -1.002,2.071C-0.827,2.071 -0.677,2.019 -0.549,1.91C-0.421,1.803 -0.317,1.658 -0.237,1.474C-0.159,1.289 -0.1,1.069 -0.059,0.813C-0.02,0.558 0,0.287 0,-0.001M1.351,0.01C1.351,0.491 1.297,0.931 1.189,1.329C1.08,1.728 0.926,2.069 0.722,2.353C0.518,2.638 0.273,2.86 -0.015,3.02C-0.303,3.178 -0.629,3.26 -0.996,3.26C-1.364,3.26 -1.692,3.178 -1.979,3.02C-2.268,2.86 -2.512,2.638 -2.716,2.353C-2.919,2.069 -3.075,1.728 -3.184,1.329C-3.292,0.931 -3.345,0.491 -3.345,0.01C-3.345,-0.476 -3.292,-0.923 -3.184,-1.324C-3.075,-1.73 -2.92,-2.075 -2.722,-2.361C-2.521,-2.65 -2.276,-2.871 -1.985,-3.027C-1.694,-3.184 -1.364,-3.261 -0.996,-3.261C-0.629,-3.261 -0.303,-3.184 -0.015,-3.027C0.273,-2.871 0.518,-2.65 0.722,-2.361C0.926,-2.075 1.08,-1.73 1.189,-1.324C1.297,-0.923 1.351,-0.476 1.351,0.01" style="fill:rgb(108,110,112);fill-rule:nonzero;"/>
                    </g>
                    <g transform="matrix(1,0,0,1,84.6333,125.679)">
                        <path d="M0,8.292C-0.347,8.502 -0.783,8.604 -1.308,8.604C-1.787,8.604 -2.219,8.492 -2.605,8.27C-2.991,8.045 -3.318,7.735 -3.585,7.34C-3.852,6.942 -4.058,6.476 -4.207,5.932C-4.353,5.388 -4.427,4.794 -4.427,4.146C-4.427,3.499 -4.353,2.901 -4.207,2.353C-4.058,1.805 -3.85,1.335 -3.58,0.939C-3.308,0.545 -2.979,0.237 -2.592,0.016C-2.206,-0.203 -1.779,-0.312 -1.308,-0.312C-0.824,-0.312 -0.397,-0.224 -0.029,-0.043C0.336,0.137 0.635,0.395 0.867,0.73L0.041,1.735C-0.285,1.265 -0.707,1.029 -1.225,1.029C-1.512,1.029 -1.763,1.111 -1.978,1.275C-2.193,1.439 -2.372,1.662 -2.516,1.94C-2.659,2.22 -2.767,2.549 -2.837,2.929C-2.909,3.308 -2.945,3.714 -2.945,4.146C-2.945,4.569 -2.909,4.97 -2.837,5.349C-2.767,5.729 -2.659,6.06 -2.516,6.34C-2.372,6.618 -2.191,6.841 -1.972,7.004C-1.753,7.167 -1.496,7.251 -1.2,7.251C-0.922,7.251 -0.681,7.179 -0.479,7.034C-0.274,6.891 -0.106,6.715 0.03,6.507L0.854,7.48C0.631,7.813 0.345,8.084 0,8.292" style="fill:rgb(108,110,112);fill-rule:nonzero;"/>
                    </g>
                    <g transform="matrix(1,0,0,1,3.55271e-15,84.649)">
                        <path d="M86.456,43.305L87.805,43.305L87.805,49.417L86.456,49.417L86.456,43.305ZM87.912,41.532C87.912,41.771 87.836,41.969 87.686,42.131C87.533,42.292 87.346,42.371 87.124,42.371C86.893,42.371 86.703,42.292 86.556,42.131C86.409,41.969 86.335,41.771 86.335,41.532C86.335,41.3 86.409,41.1 86.556,40.933C86.703,40.764 86.893,40.68 87.124,40.68C87.354,40.68 87.544,40.764 87.691,40.933C87.838,41.1 87.912,41.3 87.912,41.532" style="fill:rgb(108,110,112);fill-rule:nonzero;"/>
                    </g>
                    <g transform="matrix(1,0,0,1,91.2798,133.72)">
                        <path d="M0,-5.622C0.225,-5.854 0.486,-5.969 0.791,-5.969L0.891,-5.969C0.918,-5.969 0.952,-5.962 0.993,-5.944L0.92,-4.553C0.833,-4.579 0.737,-4.591 0.635,-4.591C0.458,-4.591 0.303,-4.536 0.169,-4.43C0.034,-4.321 -0.083,-4.179 -0.178,-4.002C-0.273,-3.828 -0.345,-3.629 -0.393,-3.405C-0.441,-3.18 -0.465,-2.952 -0.465,-2.722L-0.465,0.347L-1.838,0.347L-1.838,-5.766L-0.512,-5.766L-0.512,-4.591L-0.488,-4.591C-0.385,-5.047 -0.223,-5.391 0,-5.622" style="fill:rgb(108,110,112);fill-rule:nonzero;"/>
                    </g>
                    <g transform="matrix(1,0,0,1,96.1436,128.159)">
                        <path d="M0,5.907L0,4.937L-0.024,4.937C-0.136,5.263 -0.321,5.544 -0.579,5.772C-0.839,5.999 -1.158,6.112 -1.541,6.112C-1.876,6.112 -2.145,6.041 -2.348,5.9C-2.551,5.762 -2.708,5.575 -2.819,5.344C-2.932,5.113 -3.008,4.848 -3.047,4.548C-3.086,4.249 -3.106,3.942 -3.106,3.631L-3.106,-0.205L-1.755,-0.205L-1.755,3.631C-1.755,3.791 -1.748,3.946 -1.733,4.098C-1.716,4.249 -1.683,4.387 -1.631,4.512C-1.58,4.635 -1.503,4.735 -1.405,4.81C-1.305,4.887 -1.174,4.924 -1.015,4.924C-0.712,4.924 -0.472,4.776 -0.293,4.475C-0.113,4.176 -0.024,3.794 -0.024,3.33L-0.024,-0.205L1.325,-0.205L1.325,5.907L0,5.907Z" style="fill:rgb(108,110,112);fill-rule:nonzero;"/>
                    </g>
                    <g transform="matrix(1,0,0,1,102.117,133.697)">
                        <path d="M0,-2.699C0,-2.985 -0.022,-3.258 -0.065,-3.513C-0.11,-3.767 -0.172,-3.987 -0.258,-4.173C-0.339,-4.356 -0.447,-4.503 -0.573,-4.61C-0.701,-4.719 -0.848,-4.772 -1.015,-4.772C-1.191,-4.772 -1.341,-4.719 -1.47,-4.61C-1.596,-4.503 -1.7,-4.356 -1.78,-4.173C-1.859,-3.987 -1.92,-3.767 -1.959,-3.513C-2,-3.258 -2.02,-2.985 -2.02,-2.699C-2.02,-2.412 -2,-2.138 -1.959,-1.883C-1.92,-1.629 -1.859,-1.406 -1.78,-1.219C-1.7,-1.031 -1.596,-0.883 -1.47,-0.775C-1.341,-0.667 -1.191,-0.614 -1.015,-0.614C-0.848,-0.614 -0.701,-0.667 -0.573,-0.775C-0.447,-0.883 -0.339,-1.031 -0.258,-1.219C-0.172,-1.406 -0.11,-1.629 -0.065,-1.883C-0.022,-2.138 0,-2.412 0,-2.699M1.278,0.202C1.278,0.657 1.234,1.071 1.147,1.445C1.059,1.816 0.917,2.133 0.716,2.402C0.518,2.668 0.263,2.877 -0.046,3.025C-0.358,3.174 -0.737,3.247 -1.182,3.247C-1.605,3.247 -2.008,3.164 -2.39,3.001C-2.772,2.838 -3.086,2.618 -3.333,2.348L-2.605,1.377C-2.429,1.569 -2.225,1.728 -1.989,1.856C-1.753,1.984 -1.498,2.047 -1.219,2.047C-0.997,2.047 -0.809,2.003 -0.657,1.91C-0.505,1.817 -0.384,1.695 -0.293,1.537C-0.2,1.383 -0.136,1.199 -0.097,0.988C-0.056,0.775 -0.036,0.546 -0.036,0.297L-0.036,-0.444L-0.06,-0.444C-0.147,-0.174 -0.308,0.057 -0.544,0.243C-0.779,0.431 -1.063,0.526 -1.397,0.526C-1.724,0.526 -2.012,0.447 -2.259,0.286C-2.505,0.127 -2.709,-0.098 -2.873,-0.386C-3.038,-0.673 -3.161,-1.012 -3.244,-1.404C-3.327,-1.796 -3.37,-2.222 -3.37,-2.686C-3.37,-3.157 -3.325,-3.594 -3.238,-3.993C-3.151,-4.391 -3.022,-4.735 -2.855,-5.024C-2.688,-5.312 -2.483,-5.537 -2.24,-5.702C-1.997,-5.863 -1.717,-5.946 -1.397,-5.946C-1.007,-5.946 -0.709,-5.845 -0.501,-5.64C-0.295,-5.437 -0.144,-5.181 -0.046,-4.881L-0.011,-4.881L-0.011,-5.743L1.278,-5.743L1.278,0.202Z" style="fill:rgb(108,110,112);fill-rule:nonzero;"/>
                    </g>
                    <g transform="matrix(1,0,0,1,106.036,132.34)">
                        <path d="M0,-5.165L-1.017,-5.165L0.059,-6.891L1.3,-6.891L0,-5.165ZM-1.028,-4.386L0.323,-4.386L0.323,1.726L-1.028,1.726L-1.028,-4.386Z" style="fill:rgb(108,110,112);fill-rule:nonzero;"/>
                    </g>
                    <g transform="matrix(1,0,0,1,110.467,130.772)">
                        <path d="M0,0.43L-0.394,0.43C-0.561,0.43 -0.722,0.445 -0.878,0.472C-1.034,0.5 -1.169,0.554 -1.29,0.634C-1.408,0.713 -1.505,0.823 -1.578,0.962C-1.648,1.104 -1.683,1.282 -1.683,1.496C-1.683,1.816 -1.614,2.052 -1.475,2.203C-1.336,2.358 -1.175,2.43 -0.991,2.43C-0.807,2.43 -0.651,2.38 -0.525,2.276C-0.397,2.172 -0.297,2.04 -0.221,1.88C-0.145,1.721 -0.089,1.543 -0.054,1.348C-0.017,1.152 0,0.962 0,0.777L0,0.43ZM0.048,2.386C-0.039,2.72 -0.199,2.982 -0.429,3.168C-0.661,3.356 -0.967,3.451 -1.349,3.451C-1.524,3.451 -1.704,3.417 -1.887,3.355C-2.071,3.291 -2.236,3.185 -2.383,3.037C-2.529,2.888 -2.652,2.698 -2.747,2.461C-2.843,2.228 -2.891,1.941 -2.891,1.605C-2.891,1.172 -2.813,0.82 -2.658,0.544C-2.501,0.268 -2.303,0.051 -2.06,-0.11C-1.817,-0.268 -1.546,-0.38 -1.249,-0.441C-0.948,-0.498 -0.656,-0.528 -0.37,-0.528L-0.036,-0.528L-0.036,-0.719C-0.036,-1.129 -0.117,-1.421 -0.28,-1.602C-0.444,-1.782 -0.661,-1.871 -0.932,-1.871C-1.162,-1.871 -1.372,-1.817 -1.559,-1.708C-1.747,-1.602 -1.906,-1.46 -2.043,-1.285L-2.688,-2.134C-2.465,-2.415 -2.182,-2.632 -1.839,-2.788C-1.498,-2.944 -1.158,-3.021 -0.824,-3.021C-0.45,-3.021 -0.132,-2.963 0.126,-2.841C0.385,-2.723 0.593,-2.549 0.753,-2.322C0.913,-2.094 1.025,-1.81 1.095,-1.474C1.161,-1.14 1.195,-0.759 1.195,-0.339L1.195,3.294L0.072,3.294L0.072,2.386L0.048,2.386Z" style="fill:rgb(108,110,112);fill-rule:nonzero;"/>
                    </g>
                    <g transform="matrix(1,0,0,1,122.188,132.714)">
                        <path d="M0,-5.779L-0.048,-5.779L-0.969,-1.571L0.894,-1.571L0,-5.779ZM1.492,1.353L1.074,-0.445L-1.149,-0.445L-1.577,1.353L-3.012,1.353L-0.909,-7.132L0.918,-7.132L2.986,1.353L1.492,1.353Z" style="fill:rgb(108,110,112);fill-rule:nonzero;"/>
                    </g>
                    <g transform="matrix(1,0,0,1,129.068,128.159)">
                        <path d="M0,5.907L0,4.937L-0.024,4.937C-0.136,5.263 -0.321,5.544 -0.579,5.772C-0.837,5.999 -1.16,6.112 -1.54,6.112C-1.874,6.112 -2.145,6.041 -2.347,5.9C-2.552,5.762 -2.708,5.575 -2.82,5.344C-2.93,5.113 -3.006,4.848 -3.047,4.548C-3.086,4.249 -3.106,3.942 -3.106,3.631L-3.106,-0.205L-1.755,-0.205L-1.755,3.631C-1.755,3.791 -1.748,3.946 -1.731,4.098C-1.717,4.249 -1.683,4.387 -1.631,4.512C-1.579,4.635 -1.503,4.735 -1.403,4.81C-1.305,4.887 -1.174,4.924 -1.015,4.924C-0.712,4.924 -0.471,4.776 -0.293,4.475C-0.113,4.176 -0.024,3.794 -0.024,3.33L-0.024,-0.205L1.327,-0.205L1.327,5.907L0,5.907Z" style="fill:rgb(108,110,112);fill-rule:nonzero;"/>
                    </g>
                    <g transform="matrix(1,0,0,1,135.066,128.267)">
                        <path d="M0,2.744C0,2.449 -0.022,2.175 -0.065,1.922C-0.11,1.672 -0.173,1.451 -0.256,1.265C-0.34,1.076 -0.448,0.928 -0.579,0.82C-0.711,0.712 -0.859,0.658 -1.029,0.658C-1.203,0.658 -1.355,0.712 -1.481,0.82C-1.609,0.928 -1.713,1.076 -1.791,1.265C-1.871,1.451 -1.932,1.672 -1.971,1.922C-2.012,2.175 -2.031,2.449 -2.031,2.744C-2.031,3.032 -2.012,3.301 -1.971,3.554C-1.932,3.804 -1.871,4.024 -1.791,4.212C-1.713,4.399 -1.609,4.548 -1.481,4.655C-1.355,4.764 -1.203,4.816 -1.029,4.816C-0.852,4.816 -0.702,4.764 -0.573,4.655C-0.445,4.548 -0.34,4.399 -0.256,4.212C-0.173,4.024 -0.11,3.804 -0.065,3.554C-0.022,3.301 0,3.032 0,2.744M-0.024,5.8L-0.024,4.926L-0.049,4.926C-0.136,5.228 -0.284,5.487 -0.496,5.693C-0.707,5.9 -1.012,6.005 -1.411,6.005C-1.72,6.005 -1.999,5.921 -2.246,5.752C-2.493,5.585 -2.7,5.351 -2.867,5.051C-3.034,4.752 -3.162,4.399 -3.25,3.996C-3.336,3.595 -3.381,3.156 -3.381,2.684C-3.381,2.221 -3.339,1.794 -3.255,1.401C-3.172,1.012 -3.047,0.672 -2.878,0.39C-2.713,0.105 -2.507,-0.117 -2.264,-0.277C-2.021,-0.436 -1.737,-0.516 -1.411,-0.516C-1.074,-0.516 -0.792,-0.422 -0.562,-0.235C-0.331,-0.046 -0.171,0.187 -0.083,0.467L-0.049,0.467L-0.049,-3.261L1.278,-3.261L1.278,5.8L-0.024,5.8Z" style="fill:rgb(108,110,112);fill-rule:nonzero;"/>
                    </g>
                    <g transform="matrix(1,0,0,1,3.55271e-15,84.649)">
                        <path d="M137.97,43.305L139.319,43.305L139.319,49.417L137.97,49.417L137.97,43.305ZM139.426,41.532C139.426,41.771 139.35,41.969 139.2,42.131C139.047,42.292 138.86,42.371 138.638,42.371C138.407,42.371 138.218,42.292 138.07,42.131C137.923,41.969 137.849,41.771 137.849,41.532C137.849,41.3 137.923,41.1 138.07,40.933C138.218,40.764 138.407,40.68 138.638,40.68C138.869,40.68 139.057,40.764 139.206,40.933C139.352,41.1 139.426,41.3 139.426,41.532" style="fill:rgb(108,110,112);fill-rule:nonzero;"/>
                    </g>
                    <g transform="matrix(1,0,0,1,143.679,127.901)">
                        <path d="M0,6.22C-0.239,6.321 -0.51,6.37 -0.812,6.37C-1.187,6.37 -1.518,6.288 -1.805,6.131C-2.094,5.971 -2.333,5.744 -2.527,5.451C-2.72,5.162 -2.865,4.815 -2.961,4.416C-3.057,4.016 -3.106,3.577 -3.106,3.097C-3.106,2.618 -3.056,2.18 -2.954,1.779C-2.854,1.378 -2.707,1.035 -2.51,0.749C-2.312,0.46 -2.072,0.24 -1.788,0.083C-1.503,-0.073 -1.174,-0.15 -0.799,-0.15C-0.473,-0.15 -0.192,-0.094 0.043,0.019C0.277,0.13 0.462,0.254 0.598,0.39L-0.011,1.408C-0.098,1.312 -0.2,1.232 -0.317,1.169C-0.432,1.104 -0.573,1.072 -0.74,1.072C-1.074,1.072 -1.328,1.258 -1.499,1.631C-1.67,2.002 -1.755,2.491 -1.755,3.097C-1.755,3.705 -1.668,4.194 -1.493,4.559C-1.317,4.928 -1.05,5.113 -0.694,5.113C-0.524,5.113 -0.382,5.078 -0.263,5.015C-0.143,4.95 -0.039,4.863 0.049,4.751L0.609,5.806C0.442,5.982 0.239,6.119 0,6.22" style="fill:rgb(108,110,112);fill-rule:nonzero;"/>
                    </g>
                    <g transform="matrix(1,0,0,1,3.55271e-15,84.649)">
                        <path d="M145.125,43.305L146.476,43.305L146.476,49.417L145.125,49.417L145.125,43.305ZM146.581,41.532C146.581,41.771 146.507,41.969 146.355,42.131C146.205,42.292 146.017,42.371 145.794,42.371C145.562,42.371 145.373,42.292 145.227,42.131C145.078,41.969 145.006,41.771 145.006,41.532C145.006,41.3 145.078,41.1 145.227,40.933C145.373,40.764 145.562,40.68 145.794,40.68C146.024,40.68 146.214,40.764 146.36,40.933C146.509,41.1 146.581,41.3 146.581,41.532" style="fill:rgb(108,110,112);fill-rule:nonzero;"/>
                    </g>
                    <g transform="matrix(1,0,0,1,150.567,132.546)">
                        <path d="M0,-5.371L-1.017,-5.371L0.059,-7.097L1.302,-7.097L0,-5.371ZM0.506,-1.535C0.506,-1.83 0.486,-2.104 0.447,-2.357C0.408,-2.607 0.345,-2.828 0.261,-3.014C0.178,-3.203 0.075,-3.351 -0.049,-3.459C-0.171,-3.567 -0.321,-3.621 -0.498,-3.621C-0.672,-3.621 -0.822,-3.567 -0.944,-3.459C-1.069,-3.351 -1.17,-3.203 -1.249,-3.014C-1.329,-2.828 -1.389,-2.607 -1.429,-2.357C-1.468,-2.104 -1.489,-1.83 -1.489,-1.535C-1.489,-1.247 -1.468,-0.976 -1.429,-0.721C-1.389,-0.465 -1.329,-0.245 -1.249,-0.06C-1.17,0.124 -1.069,0.269 -0.944,0.376C-0.822,0.484 -0.672,0.537 -0.498,0.537C-0.321,0.537 -0.171,0.484 -0.043,0.376C0.085,0.269 0.188,0.124 0.269,-0.06C0.347,-0.245 0.408,-0.465 0.447,-0.721C0.486,-0.976 0.506,-1.247 0.506,-1.535M1.856,-1.524C1.856,-1.043 1.803,-0.603 1.695,-0.205C1.588,0.194 1.431,0.535 1.228,0.819C1.023,1.104 0.779,1.326 0.491,1.486C0.203,1.644 -0.123,1.726 -0.49,1.726C-0.857,1.726 -1.187,1.644 -1.474,1.486C-1.76,1.326 -2.007,1.104 -2.21,0.819C-2.413,0.535 -2.568,0.194 -2.676,-0.205C-2.784,-0.603 -2.838,-1.043 -2.838,-1.524C-2.838,-2.01 -2.784,-2.457 -2.676,-2.858C-2.568,-3.265 -2.414,-3.609 -2.216,-3.895C-2.016,-4.184 -1.771,-4.405 -1.479,-4.561C-1.188,-4.718 -0.857,-4.795 -0.49,-4.795C-0.123,-4.795 0.203,-4.718 0.491,-4.561C0.779,-4.405 1.023,-4.184 1.228,-3.895C1.431,-3.609 1.588,-3.265 1.695,-2.858C1.803,-2.457 1.856,-2.01 1.856,-1.524" style="fill:rgb(108,110,112);fill-rule:nonzero;"/>
                    </g>
                    <g transform="matrix(1,0,0,1,155.029,133.863)">
                        <path d="M0,-5.909L0,-4.938L0.022,-4.938C0.136,-5.264 0.319,-5.543 0.579,-5.77C0.837,-5.999 1.158,-6.112 1.541,-6.112C1.875,-6.112 2.144,-6.042 2.348,-5.903C2.55,-5.763 2.705,-5.578 2.818,-5.347C2.931,-5.112 3.005,-4.847 3.045,-4.546C3.084,-4.248 3.104,-3.943 3.104,-3.632L3.104,0.203L1.756,0.203L1.756,-3.632C1.756,-3.782 1.746,-3.938 1.731,-4.092C1.717,-4.248 1.682,-4.39 1.631,-4.518C1.577,-4.646 1.502,-4.747 1.403,-4.825C1.303,-4.899 1.173,-4.938 1.016,-4.938C0.711,-4.938 0.472,-4.786 0.292,-4.483C0.113,-4.179 0.022,-3.795 0.022,-3.331L0.022,0.203L-1.326,0.203L-1.326,-5.909L0,-5.909Z" style="fill:rgb(108,110,112);fill-rule:nonzero;"/>
                    </g>
                    <g transform="matrix(1,0,0,1,168.707,132.714)">
                        <path d="M0,-5.779L-0.047,-5.779L-0.967,-1.571L0.896,-1.571L0,-5.779ZM1.493,1.353L1.076,-0.445L-1.147,-0.445L-1.577,1.353L-3.01,1.353L-0.908,-7.132L0.92,-7.132L2.987,1.353L1.493,1.353Z" style="fill:rgb(108,110,112);fill-rule:nonzero;"/>
                    </g>
                    <g transform="matrix(1,0,0,1,3.55271e-15,84.327)">
                        <rect x="172.531" y="40.679" width="1.349" height="9.061" style="fill:rgb(108,110,112);"/>
                    </g>
                    <g transform="matrix(1,0,0,1,178.361,131.647)">
                        <path d="M0,-1.272C0,-1.727 -0.072,-2.095 -0.215,-2.38C-0.359,-2.664 -0.582,-2.805 -0.885,-2.805C-1.06,-2.805 -1.21,-2.753 -1.333,-2.65C-1.456,-2.545 -1.557,-2.416 -1.631,-2.259C-1.709,-2.104 -1.765,-1.937 -1.806,-1.756C-1.845,-1.577 -1.865,-1.416 -1.865,-1.272L0,-1.272ZM-1.876,-0.29C-1.876,-0.047 -1.852,0.176 -1.806,0.388C-1.757,0.599 -1.687,0.783 -1.596,0.939C-1.505,1.097 -1.394,1.219 -1.262,1.312C-1.13,1.403 -0.977,1.45 -0.802,1.45C-0.555,1.45 -0.356,1.37 -0.209,1.21C-0.063,1.05 0.054,0.867 0.143,0.66L1.134,1.233C0.96,1.657 0.71,1.993 0.388,2.246C0.064,2.498 -0.348,2.624 -0.85,2.624C-1.559,2.624 -2.129,2.344 -2.558,1.784C-2.989,1.225 -3.203,0.421 -3.203,-0.626C-3.203,-1.111 -3.147,-1.558 -3.036,-1.959C-2.925,-2.366 -2.765,-2.71 -2.558,-2.997C-2.352,-3.286 -2.106,-3.506 -1.822,-3.663C-1.54,-3.819 -1.223,-3.896 -0.872,-3.896C-0.484,-3.896 -0.15,-3.816 0.125,-3.657C0.398,-3.498 0.621,-3.281 0.794,-3.003C0.965,-2.727 1.089,-2.403 1.169,-2.026C1.249,-1.651 1.289,-1.244 1.289,-0.803L1.289,-0.29L-1.876,-0.29Z" style="fill:rgb(108,110,112);fill-rule:nonzero;"/>
                    </g>
                    <g transform="matrix(1,0,0,1,182.733,133.72)">
                        <path d="M0,-5.622C0.223,-5.854 0.485,-5.969 0.788,-5.969L0.891,-5.969C0.918,-5.969 0.952,-5.962 0.99,-5.944L0.918,-4.553C0.833,-4.579 0.736,-4.591 0.633,-4.591C0.458,-4.591 0.302,-4.536 0.167,-4.43C0.031,-4.321 -0.084,-4.179 -0.179,-4.002C-0.275,-3.828 -0.348,-3.629 -0.394,-3.405C-0.442,-3.18 -0.467,-2.952 -0.467,-2.722L-0.467,0.347L-1.842,0.347L-1.842,-5.766L-0.515,-5.766L-0.515,-4.591L-0.49,-4.591C-0.387,-5.047 -0.223,-5.391 0,-5.622" style="fill:rgb(108,110,112);fill-rule:nonzero;"/>
                    </g>
                    <g transform="matrix(1,0,0,1,187.465,133.697)">
                        <path d="M0,-2.699C0,-2.985 -0.022,-3.258 -0.066,-3.513C-0.11,-3.767 -0.175,-3.987 -0.256,-4.173C-0.342,-4.356 -0.447,-4.503 -0.573,-4.61C-0.701,-4.719 -0.851,-4.772 -1.016,-4.772C-1.191,-4.772 -1.344,-4.719 -1.47,-4.61C-1.598,-4.503 -1.702,-4.356 -1.781,-4.173C-1.859,-3.987 -1.921,-3.767 -1.96,-3.513C-2.001,-3.258 -2.02,-2.985 -2.02,-2.699C-2.02,-2.412 -2.001,-2.138 -1.96,-1.883C-1.921,-1.629 -1.859,-1.406 -1.781,-1.219C-1.702,-1.031 -1.598,-0.883 -1.47,-0.775C-1.344,-0.667 -1.191,-0.614 -1.016,-0.614C-0.851,-0.614 -0.701,-0.667 -0.573,-0.775C-0.447,-0.883 -0.342,-1.031 -0.256,-1.219C-0.175,-1.406 -0.11,-1.629 -0.066,-1.883C-0.022,-2.138 0,-2.412 0,-2.699M1.276,0.202C1.276,0.657 1.233,1.071 1.145,1.445C1.06,1.816 0.916,2.133 0.716,2.402C0.516,2.668 0.262,2.877 -0.049,3.025C-0.358,3.174 -0.736,3.247 -1.185,3.247C-1.605,3.247 -2.008,3.164 -2.391,3.001C-2.772,2.838 -3.088,2.618 -3.334,2.348L-2.605,1.377C-2.432,1.569 -2.226,1.728 -1.989,1.856C-1.756,1.984 -1.497,2.047 -1.219,2.047C-0.996,2.047 -0.81,2.003 -0.657,1.91C-0.507,1.817 -0.386,1.695 -0.294,1.537C-0.202,1.383 -0.136,1.199 -0.097,0.988C-0.056,0.775 -0.035,0.546 -0.035,0.297L-0.035,-0.444L-0.062,-0.444C-0.148,-0.174 -0.311,0.057 -0.544,0.243C-0.779,0.431 -1.065,0.526 -1.399,0.526C-1.725,0.526 -2.012,0.447 -2.259,0.286C-2.505,0.127 -2.711,-0.098 -2.874,-0.386C-3.038,-0.673 -3.162,-1.012 -3.244,-1.404C-3.327,-1.796 -3.37,-2.222 -3.37,-2.686C-3.37,-3.157 -3.327,-3.594 -3.238,-3.993C-3.15,-4.391 -3.022,-4.735 -2.855,-5.024C-2.688,-5.312 -2.482,-5.537 -2.24,-5.702C-1.997,-5.863 -1.717,-5.946 -1.399,-5.946C-1.008,-5.946 -0.709,-5.845 -0.503,-5.64C-0.295,-5.437 -0.144,-5.181 -0.049,-4.881L-0.013,-4.881L-0.013,-5.743L1.276,-5.743L1.276,0.202Z" style="fill:rgb(108,110,112);fill-rule:nonzero;"/>
                    </g>
                    <g transform="matrix(1,0,0,1,3.55271e-15,84.649)">
                        <path d="M190.355,43.305L191.704,43.305L191.704,49.417L190.355,49.417L190.355,43.305ZM191.812,41.532C191.812,41.771 191.738,41.969 191.586,42.131C191.434,42.292 191.246,42.371 191.023,42.371C190.794,42.371 190.604,42.292 190.456,42.131C190.31,41.969 190.235,41.771 190.235,41.532C190.235,41.3 190.31,41.1 190.456,40.933C190.604,40.764 190.794,40.68 191.023,40.68C191.256,40.68 191.443,40.764 191.591,40.933C191.738,41.1 191.812,41.3 191.812,41.532" style="fill:rgb(108,110,112);fill-rule:nonzero;"/>
                    </g>
                    <g transform="matrix(1,0,0,1,195.79,130.772)">
                        <path d="M0,0.43L-0.395,0.43C-0.562,0.43 -0.724,0.445 -0.877,0.472C-1.033,0.5 -1.169,0.554 -1.289,0.634C-1.41,0.713 -1.505,0.823 -1.577,0.962C-1.649,1.104 -1.685,1.282 -1.685,1.496C-1.685,1.816 -1.614,2.052 -1.475,2.203C-1.336,2.358 -1.174,2.43 -0.99,2.43C-0.809,2.43 -0.653,2.38 -0.524,2.276C-0.396,2.172 -0.297,2.04 -0.22,1.88C-0.146,1.721 -0.089,1.543 -0.053,1.348C-0.017,1.152 0,0.962 0,0.777L0,0.43ZM0.049,2.386C-0.038,2.72 -0.198,2.982 -0.431,3.168C-0.662,3.356 -0.968,3.451 -1.349,3.451C-1.524,3.451 -1.705,3.417 -1.887,3.355C-2.07,3.291 -2.235,3.185 -2.382,3.037C-2.53,2.888 -2.651,2.698 -2.747,2.461C-2.842,2.228 -2.891,1.941 -2.891,1.605C-2.891,1.172 -2.813,0.82 -2.657,0.544C-2.502,0.268 -2.304,0.051 -2.062,-0.11C-1.817,-0.268 -1.547,-0.38 -1.248,-0.441C-0.949,-0.498 -0.656,-0.528 -0.369,-0.528L-0.035,-0.528L-0.035,-0.719C-0.035,-1.129 -0.116,-1.421 -0.281,-1.602C-0.442,-1.782 -0.662,-1.871 -0.932,-1.871C-1.161,-1.871 -1.371,-1.817 -1.559,-1.708C-1.745,-1.602 -1.906,-1.46 -2.043,-1.285L-2.687,-2.134C-2.464,-2.415 -2.182,-2.632 -1.84,-2.788C-1.497,-2.944 -1.157,-3.021 -0.823,-3.021C-0.448,-3.021 -0.131,-2.963 0.126,-2.841C0.385,-2.723 0.594,-2.549 0.754,-2.322C0.913,-2.094 1.026,-1.81 1.094,-1.474C1.162,-1.14 1.195,-0.759 1.195,-0.339L1.195,3.294L0.073,3.294L0.073,2.386L0.049,2.386Z" style="fill:rgb(108,110,112);fill-rule:nonzero;"/>
                    </g>
                    <g transform="matrix(1,0,0,1,201.106,132.688)">
                        <path d="M0,-3.354C-0.111,-3.508 -0.25,-3.631 -0.417,-3.726C-0.584,-3.822 -0.775,-3.872 -0.99,-3.872C-1.191,-3.872 -1.358,-3.802 -1.491,-3.661C-1.627,-3.521 -1.695,-3.336 -1.695,-3.104C-1.695,-2.863 -1.625,-2.691 -1.48,-2.583C-1.338,-2.475 -1.111,-2.364 -0.799,-2.254C-0.625,-2.187 -0.453,-2.112 -0.281,-2.018C-0.109,-1.926 0.047,-1.809 0.187,-1.667C0.325,-1.522 0.437,-1.347 0.52,-1.143C0.604,-0.938 0.646,-0.698 0.646,-0.419C0.646,-0.083 0.593,0.209 0.484,0.462C0.377,0.714 0.232,0.924 0.048,1.093C-0.136,1.26 -0.345,1.383 -0.579,1.462C-0.814,1.544 -1.06,1.583 -1.313,1.583C-1.695,1.583 -2.052,1.506 -2.382,1.355C-2.714,1.203 -2.995,1 -3.225,0.743L-2.497,-0.119C-2.353,0.048 -2.186,0.192 -1.995,0.312C-1.804,0.431 -1.581,0.493 -1.327,0.493C-1.104,0.493 -0.928,0.416 -0.799,0.264C-0.674,0.114 -0.608,-0.086 -0.608,-0.333C-0.608,-0.624 -0.703,-0.832 -0.891,-0.959C-1.076,-1.087 -1.327,-1.206 -1.637,-1.319C-1.796,-1.375 -1.95,-1.442 -2.102,-1.522C-2.254,-1.601 -2.394,-1.71 -2.521,-1.844C-2.647,-1.981 -2.75,-2.148 -2.824,-2.343C-2.9,-2.539 -2.938,-2.776 -2.938,-3.056C-2.938,-3.351 -2.886,-3.615 -2.777,-3.846C-2.67,-4.081 -2.529,-4.275 -2.353,-4.44C-2.179,-4.603 -1.976,-4.728 -1.744,-4.811C-1.512,-4.896 -1.274,-4.937 -1.026,-4.937C-0.66,-4.937 -0.33,-4.871 -0.035,-4.739C0.259,-4.609 0.511,-4.439 0.716,-4.23L0,-3.354Z" style="fill:rgb(108,110,112);fill-rule:nonzero;"/>
                    </g>
                    <g transform="matrix(1,0,0,1,208.729,131.575)">
                        <path d="M0,-3.502C0,-3.756 -0.035,-3.97 -0.107,-4.137C-0.18,-4.306 -0.272,-4.435 -0.39,-4.531C-0.505,-4.628 -0.635,-4.695 -0.778,-4.735C-0.921,-4.774 -1.063,-4.795 -1.207,-4.795L-2.02,-4.795L-2.02,-2.183L-1.207,-2.183C-0.855,-2.183 -0.567,-2.294 -0.342,-2.511C-0.113,-2.731 0,-3.06 0,-3.502M0.096,2.491L-1.219,-1.128L-2.02,-1.128L-2.02,2.491L-3.405,2.491L-3.405,-5.993L-0.993,-5.993C-0.643,-5.993 -0.319,-5.947 -0.024,-5.856C0.271,-5.766 0.523,-5.619 0.732,-5.419C0.946,-5.22 1.111,-4.968 1.23,-4.663C1.349,-4.361 1.408,-3.997 1.408,-3.572C1.408,-3.246 1.367,-2.956 1.284,-2.703C1.2,-2.452 1.095,-2.238 0.967,-2.063C0.841,-1.888 0.697,-1.745 0.544,-1.637C0.388,-1.529 0.233,-1.455 0.084,-1.414L1.599,2.491L0.096,2.491Z" style="fill:rgb(108,110,112);fill-rule:nonzero;"/>
                    </g>
                    <g transform="matrix(1,0,0,1,214.178,131.647)">
                        <path d="M0,-1.272C0,-1.727 -0.073,-2.095 -0.216,-2.38C-0.358,-2.664 -0.583,-2.805 -0.886,-2.805C-1.061,-2.805 -1.211,-2.753 -1.333,-2.65C-1.457,-2.545 -1.556,-2.416 -1.632,-2.259C-1.707,-2.104 -1.765,-1.937 -1.804,-1.756C-1.845,-1.577 -1.865,-1.416 -1.865,-1.272L0,-1.272ZM-1.876,-0.29C-1.876,-0.047 -1.854,0.176 -1.804,0.388C-1.758,0.599 -1.689,0.783 -1.596,0.939C-1.504,1.097 -1.395,1.219 -1.261,1.312C-1.131,1.403 -0.977,1.45 -0.802,1.45C-0.555,1.45 -0.358,1.37 -0.21,1.21C-0.063,1.05 0.055,0.867 0.143,0.66L1.133,1.233C0.959,1.657 0.71,1.993 0.386,2.246C0.064,2.498 -0.348,2.624 -0.85,2.624C-1.56,2.624 -2.127,2.344 -2.558,1.784C-2.987,1.225 -3.203,0.421 -3.203,-0.626C-3.203,-1.111 -3.147,-1.558 -3.034,-1.959C-2.925,-2.366 -2.765,-2.71 -2.558,-2.997C-2.352,-3.286 -2.104,-3.506 -1.824,-3.663C-1.54,-3.819 -1.223,-3.896 -0.872,-3.896C-0.482,-3.896 -0.15,-3.816 0.124,-3.657C0.398,-3.498 0.623,-3.281 0.793,-3.003C0.965,-2.727 1.091,-2.403 1.171,-2.026C1.25,-1.651 1.289,-1.244 1.289,-0.803L1.289,-0.29L-1.876,-0.29Z" style="fill:rgb(108,110,112);fill-rule:nonzero;"/>
                    </g>
                    <g transform="matrix(1,0,0,1,219.278,132.688)">
                        <path d="M0,-3.354C-0.113,-3.508 -0.25,-3.631 -0.42,-3.726C-0.587,-3.822 -0.777,-3.872 -0.993,-3.872C-1.191,-3.872 -1.358,-3.802 -1.494,-3.661C-1.63,-3.521 -1.696,-3.336 -1.696,-3.104C-1.696,-2.863 -1.625,-2.691 -1.48,-2.583C-1.338,-2.475 -1.112,-2.364 -0.8,-2.254C-0.625,-2.187 -0.453,-2.112 -0.282,-2.018C-0.11,-1.926 0.045,-1.809 0.186,-1.667C0.323,-1.522 0.436,-1.347 0.52,-1.143C0.603,-0.938 0.646,-0.698 0.646,-0.419C0.646,-0.083 0.59,0.209 0.482,0.462C0.374,0.714 0.229,0.924 0.048,1.093C-0.136,1.26 -0.345,1.383 -0.579,1.462C-0.814,1.544 -1.06,1.583 -1.315,1.583C-1.696,1.583 -2.053,1.506 -2.385,1.355C-2.715,1.203 -2.995,1 -3.228,0.743L-2.498,-0.119C-2.354,0.048 -2.188,0.192 -1.995,0.312C-1.804,0.431 -1.581,0.493 -1.327,0.493C-1.104,0.493 -0.93,0.416 -0.8,0.264C-0.674,0.114 -0.608,-0.086 -0.608,-0.333C-0.608,-0.624 -0.703,-0.832 -0.891,-0.959C-1.078,-1.087 -1.327,-1.206 -1.639,-1.319C-1.797,-1.375 -1.952,-1.442 -2.103,-1.522C-2.255,-1.601 -2.394,-1.71 -2.521,-1.844C-2.648,-1.981 -2.75,-2.148 -2.826,-2.343C-2.902,-2.539 -2.939,-2.776 -2.939,-3.056C-2.939,-3.351 -2.886,-3.615 -2.777,-3.846C-2.671,-4.081 -2.529,-4.275 -2.354,-4.44C-2.179,-4.603 -1.977,-4.728 -1.744,-4.811C-1.514,-4.896 -1.274,-4.937 -1.028,-4.937C-0.662,-4.937 -0.33,-4.871 -0.035,-4.739C0.258,-4.609 0.508,-4.439 0.716,-4.23L0,-3.354Z" style="fill:rgb(108,110,112);fill-rule:nonzero;"/>
                    </g>
                    <g transform="matrix(1,0,0,1,224.428,133.697)">
                        <path d="M0,-2.699C0,-2.985 -0.021,-3.258 -0.062,-3.513C-0.101,-3.767 -0.161,-3.987 -0.239,-4.173C-0.319,-4.356 -0.423,-4.503 -0.552,-4.61C-0.678,-4.719 -0.83,-4.772 -1.006,-4.772C-1.171,-4.772 -1.319,-4.719 -1.446,-4.61C-1.574,-4.503 -1.68,-4.356 -1.764,-4.173C-1.847,-3.987 -1.909,-3.767 -1.954,-3.513C-1.999,-3.258 -2.021,-2.985 -2.021,-2.699C-2.021,-2.412 -1.999,-2.138 -1.954,-1.883C-1.909,-1.629 -1.847,-1.406 -1.764,-1.219C-1.68,-1.031 -1.574,-0.883 -1.446,-0.775C-1.319,-0.667 -1.171,-0.614 -1.006,-0.614C-0.83,-0.614 -0.678,-0.667 -0.552,-0.775C-0.423,-0.883 -0.319,-1.031 -0.239,-1.219C-0.161,-1.406 -0.101,-1.629 -0.062,-1.883C-0.021,-2.138 0,-2.412 0,-2.699M1.349,-2.699C1.349,-2.228 1.308,-1.794 1.225,-1.398C1.141,-1.003 1.015,-0.656 0.848,-0.361C0.679,-0.066 0.473,0.163 0.226,0.327C-0.021,0.492 -0.305,0.574 -0.622,0.574C-0.973,0.574 -1.263,0.476 -1.488,0.28C-1.715,0.084 -1.873,-0.153 -1.96,-0.431L-1.986,-0.431L-1.986,3.247L-3.309,3.247L-3.309,-5.743L-2.009,-5.743L-2.009,-4.881L-1.986,-4.881C-1.88,-5.181 -1.726,-5.437 -1.519,-5.64C-1.312,-5.845 -1.012,-5.946 -0.622,-5.946C-0.305,-5.946 -0.022,-5.863 0.219,-5.702C0.462,-5.537 0.668,-5.309 0.835,-5.019C1.002,-4.725 1.13,-4.38 1.217,-3.987C1.306,-3.592 1.349,-3.161 1.349,-2.699" style="fill:rgb(108,110,112);fill-rule:nonzero;"/>
                    </g>
                    <g transform="matrix(1,0,0,1,3.55271e-15,84.649)">
                        <path d="M227.044,43.305L228.393,43.305L228.393,49.417L227.044,49.417L227.044,43.305ZM228.5,41.532C228.5,41.771 228.425,41.969 228.274,42.131C228.124,42.292 227.936,42.371 227.712,42.371C227.479,42.371 227.292,42.292 227.145,42.131C226.997,41.969 226.923,41.771 226.923,41.532C226.923,41.3 226.997,41.1 227.145,40.933C227.292,40.764 227.479,40.68 227.712,40.68C227.943,40.68 228.131,40.764 228.279,40.933C228.426,41.1 228.5,41.3 228.5,41.532" style="fill:rgb(108,110,112);fill-rule:nonzero;"/>
                    </g>
                    <g transform="matrix(1,0,0,1,231.87,133.72)">
                        <path d="M0,-5.622C0.223,-5.854 0.484,-5.969 0.788,-5.969L0.889,-5.969C0.917,-5.969 0.95,-5.962 0.991,-5.944L0.919,-4.553C0.831,-4.579 0.734,-4.591 0.633,-4.591C0.456,-4.591 0.302,-4.536 0.167,-4.43C0.031,-4.321 -0.083,-4.179 -0.181,-4.002C-0.276,-3.828 -0.348,-3.629 -0.396,-3.405C-0.441,-3.18 -0.468,-2.952 -0.468,-2.722L-0.468,0.347L-1.841,0.347L-1.841,-5.766L-0.514,-5.766L-0.514,-4.591L-0.489,-4.591C-0.389,-5.047 -0.225,-5.391 0,-5.622" style="fill:rgb(108,110,112);fill-rule:nonzero;"/>
                    </g>
                    <g transform="matrix(1,0,0,1,236.074,130.772)">
                        <path d="M0,0.43L-0.395,0.43C-0.56,0.43 -0.724,0.445 -0.879,0.472C-1.031,0.5 -1.17,0.554 -1.289,0.634C-1.409,0.713 -1.504,0.823 -1.576,0.962C-1.647,1.104 -1.683,1.282 -1.683,1.496C-1.683,1.816 -1.614,2.052 -1.475,2.203C-1.336,2.358 -1.175,2.43 -0.99,2.43C-0.809,2.43 -0.652,2.38 -0.524,2.276C-0.398,2.172 -0.296,2.04 -0.221,1.88C-0.145,1.721 -0.089,1.543 -0.054,1.348C-0.017,1.152 0,0.962 0,0.777L0,0.43ZM0.049,2.386C-0.039,2.72 -0.2,2.982 -0.43,3.168C-0.66,3.356 -0.966,3.451 -1.351,3.451C-1.525,3.451 -1.703,3.417 -1.887,3.355C-2.07,3.291 -2.235,3.185 -2.384,3.037C-2.53,2.888 -2.651,2.698 -2.748,2.461C-2.842,2.228 -2.893,1.941 -2.893,1.605C-2.893,1.172 -2.813,0.82 -2.656,0.544C-2.503,0.268 -2.305,0.051 -2.061,-0.11C-1.818,-0.268 -1.547,-0.38 -1.248,-0.441C-0.949,-0.498 -0.656,-0.528 -0.371,-0.528L-0.037,-0.528L-0.037,-0.719C-0.037,-1.129 -0.116,-1.421 -0.279,-1.602C-0.445,-1.782 -0.66,-1.871 -0.931,-1.871C-1.161,-1.871 -1.373,-1.817 -1.559,-1.708C-1.746,-1.602 -1.907,-1.46 -2.043,-1.285L-2.688,-2.134C-2.464,-2.415 -2.182,-2.632 -1.84,-2.788C-1.497,-2.944 -1.159,-3.021 -0.823,-3.021C-0.451,-3.021 -0.134,-2.963 0.127,-2.841C0.384,-2.723 0.593,-2.549 0.754,-2.322C0.913,-2.094 1.026,-1.81 1.094,-1.474C1.16,-1.14 1.193,-0.759 1.193,-0.339L1.193,3.294L0.071,3.294L0.071,2.386L0.049,2.386Z" style="fill:rgb(108,110,112);fill-rule:nonzero;"/>
                    </g>
                    <g transform="matrix(1,0,0,1,240.159,131.621)">
                        <path d="M0,-2.624L0,0.517C0,0.853 0.05,1.095 0.15,1.247C0.25,1.399 0.402,1.476 0.61,1.476C0.681,1.476 0.755,1.466 0.831,1.451C0.907,1.435 0.974,1.41 1.029,1.379L1.052,2.434C0.957,2.483 0.831,2.522 0.671,2.554C0.51,2.587 0.351,2.602 0.192,2.602C-0.325,2.602 -0.698,2.447 -0.924,2.14C-1.152,1.832 -1.266,1.393 -1.266,0.816L-1.266,-2.624L-2.03,-2.624L-2.03,-3.667L-1.266,-3.667L-1.266,-5.226L0,-5.226L0,-3.667L1.064,-3.667L1.064,-2.624L0,-2.624Z" style="fill:rgb(108,110,112);fill-rule:nonzero;"/>
                    </g>
                    <g transform="matrix(1,0,0,1,245.178,131.012)">
                        <path d="M0,-0.001C0,-0.296 -0.019,-0.57 -0.059,-0.823C-0.1,-1.073 -0.159,-1.294 -0.245,-1.48C-0.328,-1.669 -0.432,-1.817 -0.555,-1.925C-0.679,-2.033 -0.827,-2.087 -1.004,-2.087C-1.178,-2.087 -1.327,-2.033 -1.45,-1.925C-1.575,-1.817 -1.678,-1.669 -1.756,-1.48C-1.835,-1.294 -1.896,-1.073 -1.935,-0.823C-1.976,-0.57 -1.995,-0.296 -1.995,-0.001C-1.995,0.287 -1.976,0.558 -1.935,0.813C-1.896,1.069 -1.835,1.289 -1.756,1.474C-1.678,1.658 -1.575,1.803 -1.45,1.91C-1.327,2.019 -1.178,2.071 -1.004,2.071C-0.827,2.071 -0.677,2.019 -0.549,1.91C-0.423,1.803 -0.317,1.658 -0.239,1.474C-0.159,1.289 -0.1,1.069 -0.059,0.813C-0.019,0.558 0,0.287 0,-0.001M1.35,0.01C1.35,0.491 1.297,0.931 1.188,1.329C1.08,1.728 0.924,2.069 0.721,2.353C0.518,2.638 0.273,2.86 -0.017,3.02C-0.303,3.178 -0.629,3.26 -0.996,3.26C-1.363,3.26 -1.69,3.178 -1.979,3.02C-2.268,2.86 -2.513,2.638 -2.714,2.353C-2.92,2.069 -3.076,1.728 -3.184,1.329C-3.292,0.931 -3.343,0.491 -3.343,0.01C-3.343,-0.476 -3.292,-0.923 -3.184,-1.324C-3.076,-1.73 -2.922,-2.075 -2.722,-2.361C-2.521,-2.65 -2.276,-2.871 -1.985,-3.027C-1.694,-3.184 -1.363,-3.261 -0.996,-3.261C-0.629,-3.261 -0.303,-3.184 -0.017,-3.027C0.273,-2.871 0.518,-2.65 0.721,-2.361C0.924,-2.075 1.08,-1.73 1.188,-1.324C1.297,-0.923 1.35,-0.476 1.35,0.01" style="fill:rgb(108,110,112);fill-rule:nonzero;"/>
                    </g>
                    <g transform="matrix(1,0,0,1,249.645,133.72)">
                        <path d="M0,-5.622C0.223,-5.854 0.486,-5.969 0.789,-5.969L0.89,-5.969C0.918,-5.969 0.952,-5.962 0.991,-5.944L0.919,-4.553C0.832,-4.579 0.737,-4.591 0.634,-4.591C0.459,-4.591 0.303,-4.536 0.167,-4.43C0.032,-4.321 -0.083,-4.179 -0.178,-4.002C-0.273,-3.828 -0.346,-3.629 -0.393,-3.405C-0.44,-3.18 -0.465,-2.952 -0.465,-2.722L-0.465,0.347L-1.838,0.347L-1.838,-5.766L-0.513,-5.766L-0.513,-4.591L-0.489,-4.591C-0.385,-5.047 -0.223,-5.391 0,-5.622" style="fill:rgb(108,110,112);fill-rule:nonzero;"/>
                    </g>
                    <g transform="matrix(1,0,0,1,3.55271e-15,84.649)">
                        <path d="M251.449,43.305L252.801,43.305L252.801,49.417L251.449,49.417L251.449,43.305ZM252.906,41.532C252.906,41.771 252.832,41.969 252.682,42.131C252.529,42.292 252.342,42.371 252.12,42.371C251.888,42.371 251.698,42.292 251.552,42.131C251.403,41.969 251.329,41.771 251.329,41.532C251.329,41.3 251.403,41.1 251.552,40.933C251.698,40.764 251.888,40.68 252.12,40.68C252.35,40.68 252.539,40.764 252.687,40.933C252.832,41.1 252.906,41.3 252.906,41.532" style="fill:rgb(108,110,112);fill-rule:nonzero;"/>
                    </g>
                    <g transform="matrix(1,0,0,1,256.885,130.772)">
                        <path d="M0,0.43L-0.394,0.43C-0.561,0.43 -0.722,0.445 -0.876,0.472C-1.033,0.5 -1.169,0.554 -1.289,0.634C-1.408,0.713 -1.505,0.823 -1.577,0.962C-1.647,1.104 -1.685,1.282 -1.685,1.496C-1.685,1.816 -1.614,2.052 -1.476,2.203C-1.336,2.358 -1.175,2.43 -0.991,2.43C-0.808,2.43 -0.653,2.38 -0.525,2.276C-0.397,2.172 -0.297,2.04 -0.221,1.88C-0.145,1.721 -0.089,1.543 -0.053,1.348C-0.017,1.152 0,0.962 0,0.777L0,0.43ZM0.048,2.386C-0.039,2.72 -0.197,2.982 -0.431,3.168C-0.66,3.356 -0.967,3.451 -1.35,3.451C-1.525,3.451 -1.703,3.417 -1.887,3.355C-2.071,3.291 -2.235,3.185 -2.383,3.037C-2.529,2.888 -2.649,2.698 -2.746,2.461C-2.843,2.228 -2.889,1.941 -2.889,1.605C-2.889,1.172 -2.813,0.82 -2.657,0.544C-2.502,0.268 -2.303,0.051 -2.06,-0.11C-1.817,-0.268 -1.546,-0.38 -1.247,-0.441C-0.948,-0.498 -0.654,-0.528 -0.369,-0.528L-0.035,-0.528L-0.035,-0.719C-0.035,-1.129 -0.117,-1.421 -0.28,-1.602C-0.443,-1.782 -0.66,-1.871 -0.932,-1.871C-1.161,-1.871 -1.371,-1.817 -1.559,-1.708C-1.746,-1.602 -1.906,-1.46 -2.041,-1.285L-2.687,-2.134C-2.464,-2.415 -2.18,-2.632 -1.839,-2.788C-1.497,-2.944 -1.158,-3.021 -0.824,-3.021C-0.449,-3.021 -0.132,-2.963 0.126,-2.841C0.386,-2.723 0.594,-2.549 0.754,-2.322C0.913,-2.094 1.026,-1.81 1.093,-1.474C1.161,-1.14 1.197,-0.759 1.197,-0.339L1.197,3.294L0.072,3.294L0.072,2.386L0.048,2.386Z" style="fill:rgb(108,110,112);fill-rule:nonzero;"/>
                    </g>
                    <g transform="matrix(1,0,0,1,262.201,132.688)">
                        <path d="M0,-3.354C-0.111,-3.508 -0.251,-3.631 -0.418,-3.726C-0.585,-3.822 -0.776,-3.872 -0.989,-3.872C-1.189,-3.872 -1.356,-3.802 -1.492,-3.661C-1.628,-3.521 -1.696,-3.336 -1.696,-3.104C-1.696,-2.863 -1.624,-2.691 -1.481,-2.583C-1.336,-2.475 -1.11,-2.364 -0.8,-2.254C-0.626,-2.187 -0.451,-2.112 -0.28,-2.018C-0.109,-1.926 0.048,-1.809 0.186,-1.667C0.326,-1.522 0.436,-1.347 0.52,-1.143C0.604,-0.938 0.646,-0.698 0.646,-0.419C0.646,-0.083 0.592,0.209 0.484,0.462C0.376,0.714 0.231,0.924 0.048,1.093C-0.134,1.26 -0.344,1.383 -0.579,1.462C-0.813,1.544 -1.058,1.583 -1.314,1.583C-1.696,1.583 -2.051,1.506 -2.383,1.355C-2.713,1.203 -2.993,1 -3.226,0.743L-2.496,-0.119C-2.353,0.048 -2.185,0.192 -1.993,0.312C-1.804,0.431 -1.579,0.493 -1.327,0.493C-1.103,0.493 -0.927,0.416 -0.8,0.264C-0.672,0.114 -0.609,-0.086 -0.609,-0.333C-0.609,-0.624 -0.704,-0.832 -0.889,-0.959C-1.077,-1.087 -1.327,-1.206 -1.635,-1.319C-1.796,-1.375 -1.951,-1.442 -2.101,-1.522C-2.253,-1.601 -2.392,-1.71 -2.52,-1.844C-2.647,-1.981 -2.75,-2.148 -2.824,-2.343C-2.9,-2.539 -2.938,-2.776 -2.938,-3.056C-2.938,-3.351 -2.886,-3.615 -2.776,-3.846C-2.67,-4.081 -2.527,-4.275 -2.353,-4.44C-2.177,-4.603 -1.975,-4.728 -1.743,-4.811C-1.513,-4.896 -1.273,-4.937 -1.026,-4.937C-0.661,-4.937 -0.331,-4.871 -0.036,-4.739C0.259,-4.609 0.51,-4.439 0.718,-4.23L0,-3.354Z" style="fill:rgb(108,110,112);fill-rule:nonzero;"/>
                    </g>
                    <g transform="matrix(0,-1,-1,0,76.5028,128.664)">
                        <path d="M-1.695,-1.692C-2.634,-1.692 -3.393,-0.933 -3.393,0C-3.393,0.938 -2.634,1.695 -1.695,1.695C-0.757,1.695 0.006,0.938 0.006,0C0.006,-0.933 -0.757,-1.692 -1.695,-1.692" style="fill:rgb(108,110,112);fill-rule:nonzero;"/>
                    </g>
                    <g transform="matrix(0,-1,-1,0,115.948,128.664)">
                        <path d="M-1.695,-1.693C-2.635,-1.693 -3.394,-0.934 -3.394,-0C-3.394,0.936 -2.635,1.695 -1.695,1.695C-0.757,1.695 0.006,0.936 0.006,-0C0.006,-0.934 -0.757,-1.693 -1.695,-1.693" style="fill:rgb(108,110,112);fill-rule:nonzero;"/>
                    </g>
                    <g transform="matrix(0,-1,-1,0,162.534,128.665)">
                        <path d="M-1.694,-1.692C-2.633,-1.692 -3.393,-0.935 -3.393,0.001C-3.393,0.937 -2.633,1.694 -1.694,1.694C-0.756,1.694 0.007,0.937 0.007,0.001C0.007,-0.935 -0.756,-1.692 -1.694,-1.692" style="fill:rgb(108,110,112);fill-rule:nonzero;"/>
                    </g>
                </g>
            </g>
            <g>
                <g transform="matrix(1,0,0,1,66.7476,95.5022)">
                    <path d="M0,-44.082C-23.912,-57.723 -33.362,-19.454 1.75,5.045C23.274,13.662 5.908,38.455 -11.089,27.518C-35.132,9.97 -49.753,-21.977 -31.13,-52.254C-12.508,-82.537 38.089,-50.595 3.891,1.445C-2.813,-2.356 -8.147,-7.66 -12.258,-14.314C-5.347,-23.295 -0.685,-33.027 0,-44.082" style="fill:rgb(85,197,208);"/>
                </g>
                <g transform="matrix(0.24,0,0,0.24,0,0)">
                    <path d="M148.407,180.202C142.299,190.131 137.044,200.114 132.603,210.106L132.594,210.602C182.186,126.273 274.39,143.769 277.899,214.119L278.115,214.248C275.265,260.314 255.836,300.864 227.044,338.285C244.169,366.01 266.394,388.106 294.328,403.948C398.694,245.135 313.524,131.244 229.986,131.239C199.469,131.239 169.169,146.439 148.407,180.202Z" style="fill:url(#_Linear1);fill-rule:nonzero;"/>
                </g>
                <g transform="matrix(0.24,0,0,0.24,0,0)">
                    <path d="M231.911,512.585C302.732,558.156 375.094,454.852 285.407,418.948L285.003,418.648C171.065,368.873 105.224,329.989 132.811,209.635C80.494,326.639 139.499,445.131 231.911,512.585Z" style="fill:url(#_Linear2);"/>
                </g>
            </g>
        </g>
    </g>
    <defs>
        <linearGradient id="_Linear1" x1="0" y1="0" x2="1" y2="0" gradientUnits="userSpaceOnUse" gradientTransform="matrix(-99.2422,-153.644,153.644,-99.2422,319.415,284.884)"><stop offset="0" style="stop-color:rgb(70,165,175);stop-opacity:1"/><stop offset="1" style="stop-color:rgb(2,117,129);stop-opacity:1"/></linearGradient>
        <linearGradient id="_Linear2" x1="0" y1="0" x2="1" y2="0" gradientUnits="userSpaceOnUse" gradientTransform="matrix(-185.092,-217.898,217.898,-185.092,298.301,485.492)"><stop offset="0" style="stop-color:rgb(70,165,175);stop-opacity:1"/><stop offset="1" style="stop-color:rgb(2,117,129);stop-opacity:1"/></linearGradient>
    </defs>
</svg>
