<svg width="432" height="536" viewBox="0 0 432 536" fill="none" xmlns="http://www.w3.org/2000/svg">
<mask id="mask0" mask-type="alpha" maskUnits="userSpaceOnUse" x="0" y="0" width="432" height="536">
<rect width="432" height="536" fill="#C4C4C4"/>
</mask>
<g mask="url(#mask0)">
<path d="M54.5758 170.503C-220.205 401.184 111.586 641.925 306.301 486.465C615.747 239.404 295.363 -66.0006 -24.5018 12.5146C-76.2241 25.2105 131.784 105.686 54.5758 170.503Z" fill="url(#paint0_linear)"/>
<path d="M23.7068 242.895C-169.948 405.409 63.8855 575.01 201.113 465.489C419.199 291.435 193.405 76.2788 -32.0241 131.592C-68.476 140.537 78.1203 197.231 23.7068 242.895Z" fill="url(#paint1_linear)"/>
<path d="M59.7676 441.754L33.7922 500.293H-159L-71.7558 -18.639C79.4925 -42.834 215.793 34.0463 181.555 202.034C181.555 232.662 232.808 267.974 218.24 284.05C203.637 300.126 188.142 312.968 188.142 312.968C188.142 312.968 204.23 343.542 197.009 352.006C189.717 360.47 181.555 366.392 181.555 366.392C181.555 366.392 188.323 370.347 188.323 380.823C188.323 391.262 156.763 405.217 156.763 405.217C156.763 405.217 170.387 461.183 137.074 453.243C88.8757 441.754 59.7676 441.754 59.7676 441.754Z" fill="white"/>
</g>
<defs>
<linearGradient id="paint0_linear" x1="6.44349" y1="20.0073" x2="308.663" y2="523.485" gradientUnits="userSpaceOnUse">
<stop stop-color="#F76565"/>
<stop offset="1" stop-color="#E799F3"/>
</linearGradient>
<linearGradient id="paint1_linear" x1="77.0908" y1="208.127" x2="115.865" y2="398.646" gradientUnits="userSpaceOnUse">
<stop stop-color="#19A6A8"/>
<stop offset="1" stop-color="#13BBD2"/>
</linearGradient>
</defs>
</svg>
